<svg width="159" height="138" viewBox="0 0 159 138" fill="none" xmlns="http://www.w3.org/2000/svg">
<g clip-path="url(#clip0_40_278)" filter="url(#filter0_d_40_278)">
<mask id="mask0_40_278" style="mask-type:luminance" maskUnits="userSpaceOnUse" x="14" y="0" width="131" height="130">
<path d="M144.328 0H14.3281V130H144.328V0Z" fill="white"/>
</mask>
<g mask="url(#mask0_40_278)">
<path d="M97.7413 97.1464L89.5982 93.4692C89.0986 93.2435 88.5106 93.4661 88.2851 93.9657C88.0594 94.4653 88.2816 95.0529 88.7814 95.2787L94.5561 97.8862C93.9458 98.0569 93.2322 98.2432 92.4292 98.4305C89.5658 99.098 85.5762 99.7778 81.0681 99.8288C72.0518 99.93 61.0555 97.5228 52.758 87.5781C44.4386 77.6077 43.7292 66.9737 45.108 58.7852C45.7984 54.6848 47.0125 51.2067 48.0544 48.754C48.5749 47.5287 49.0512 46.5625 49.3952 45.906C49.5672 45.5778 49.7059 45.3274 49.8006 45.161C49.8478 45.0777 49.8841 45.0154 49.9079 44.9751C49.9197 44.9549 49.9286 44.9402 49.934 44.931C49.9368 44.9264 49.9387 44.9233 49.9398 44.9215C49.9404 44.9206 49.9407 44.92 49.9408 44.9198C49.9407 44.92 49.9405 44.9202 49.0928 44.4036C48.2451 43.887 48.2448 43.8876 48.2445 43.8881C48.2443 43.8884 48.2438 43.8891 48.2435 43.8898C48.2428 43.891 48.2418 43.8925 48.2406 43.8945C48.2383 43.8984 48.2352 43.9036 48.2311 43.9103C48.2231 43.9237 48.2117 43.9425 48.1973 43.9671C48.1683 44.0163 48.1268 44.0875 48.0743 44.18C47.9692 44.365 47.8196 44.6351 47.6365 44.9844C47.2707 45.6826 46.7708 46.6975 46.227 47.9776C45.1402 50.5359 43.8724 54.166 43.1501 58.4555C41.7035 67.0466 42.4456 78.3178 51.2335 88.8504C60.0433 99.4087 71.7153 101.92 81.0906 101.814C85.7785 101.761 89.9154 101.056 92.8801 100.364C93.9023 100.126 94.7868 99.8883 95.5082 99.6795L92.7512 105.785C92.5255 106.285 92.7472 106.873 93.2475 107.098C93.7471 107.324 94.3348 107.102 94.5604 106.603L98.2376 98.4595C98.4627 97.9599 98.2409 97.3722 97.7413 97.1464Z" fill="#F86642"/>
<path d="M115.892 69.0019C116.959 60.3555 115.723 49.1277 106.481 38.9912C97.2165 28.8298 85.4454 26.8339 76.0839 27.3511C71.4029 27.6098 67.3006 28.4964 64.3695 29.3172C63.3586 29.6004 62.4857 29.8759 61.7741 30.1163L64.2603 23.8955C64.4637 23.3865 64.216 22.8087 63.707 22.6052C63.1978 22.4018 62.6201 22.6496 62.4166 23.1586L59.1008 31.4551C58.8973 31.9642 59.1451 32.5419 59.6543 32.7454L67.9507 36.0612C68.4598 36.2646 69.0373 36.0168 69.2409 35.5078C69.4444 34.9987 69.1966 34.421 68.6875 34.2175L62.8041 31.8661C63.4063 31.6689 64.1107 31.4516 64.9049 31.2291C67.7362 30.4362 71.6921 29.5822 76.1935 29.3335C85.1967 28.8361 96.2881 30.7584 105.014 40.3291C113.764 49.9249 114.939 60.5174 113.921 68.7585C113.411 72.8852 112.351 76.4133 111.418 78.9094C110.952 80.1564 110.518 81.1424 110.203 81.8135C110.046 82.1487 109.919 82.4051 109.831 82.5756C109.788 82.6609 109.754 82.7244 109.732 82.7662C109.721 82.7866 109.713 82.802 109.708 82.8112C109.705 82.8161 109.703 82.8192 109.702 82.821C109.702 82.8217 109.701 82.8222 109.701 82.8228C109.701 82.8222 109.702 82.8222 110.571 83.3008C111.441 83.7801 111.441 83.7797 111.442 83.779C111.442 83.7784 111.442 83.7776 111.443 83.7771C111.443 83.7758 111.444 83.7747 111.445 83.7722C111.447 83.7685 111.45 83.763 111.454 83.7563C111.461 83.7427 111.472 83.7229 111.485 83.6977C111.512 83.6478 111.55 83.5744 111.599 83.4799C111.696 83.2902 111.833 83.014 112.001 82.6571C112.336 81.9437 112.79 80.9076 113.277 79.6047C114.251 77.0013 115.358 73.3189 115.892 69.0019Z" fill="#F86642"/>
</g>
</g>
<defs>
<filter id="filter0_d_40_278" x="0.328125" y="0" width="158" height="138" filterUnits="userSpaceOnUse" color-interpolation-filters="sRGB">
<feFlood flood-opacity="0" result="BackgroundImageFix"/>
<feColorMatrix in="SourceAlpha" type="matrix" values="0 0 0 0 0 0 0 0 0 0 0 0 0 0 0 0 0 0 127 0" result="hardAlpha"/>
<feOffset dy="4"/>
<feGaussianBlur stdDeviation="2"/>
<feComposite in2="hardAlpha" operator="out"/>
<feColorMatrix type="matrix" values="0 0 0 0 0 0 0 0 0 0 0 0 0 0 0 0 0 0 0.25 0"/>
<feBlend mode="normal" in2="BackgroundImageFix" result="effect1_dropShadow_40_278"/>
<feBlend mode="normal" in="SourceGraphic" in2="effect1_dropShadow_40_278" result="shape"/>
</filter>
<clipPath id="clip0_40_278">
<rect width="150" height="130" fill="white" transform="translate(4.32812)"/>
</clipPath>
</defs>
</svg>
