<svg width="68" height="57" viewBox="0 0 68 57" fill="none" xmlns="http://www.w3.org/2000/svg">
<path fill-rule="evenodd" clip-rule="evenodd" d="M0.245772 35.3344C0.244943 35.1509 0.280805 34.9691 0.351248 34.7997C0.421691 34.6303 0.525293 34.4767 0.655965 34.3479C0.786638 34.2191 0.941743 34.1177 1.11216 34.0497C1.28258 33.9817 1.46488 33.9484 1.64833 33.9519L10.1898 34.084C10.9644 34.096 11.5885 34.7349 11.5839 35.5144L11.5 49.3898C11.4983 49.5742 11.5331 49.7571 11.6025 49.928C11.6719 50.0988 11.7745 50.2542 11.9043 50.3852C12.0341 50.5162 12.1885 50.6202 12.3587 50.6911C12.5289 50.7621 12.7114 50.7987 12.8958 50.7987H15.7101C16.0828 50.7984 16.4401 50.65 16.7034 50.3863C16.9667 50.1225 17.1146 49.765 17.1144 49.3923V1.5993C17.1145 1.4144 17.1511 1.23135 17.222 1.0606C17.2929 0.889841 17.3968 0.734729 17.5276 0.604121C17.6585 0.473514 17.8138 0.36997 17.9847 0.299407C18.1556 0.228844 18.3387 0.192645 18.5236 0.192875H32.5738C32.7588 0.192413 32.942 0.228466 33.113 0.298969C33.2841 0.369472 33.4395 0.473038 33.5704 0.603728C33.7013 0.734419 33.8052 0.889665 33.876 1.06057C33.9468 1.23147 33.9831 1.41466 33.983 1.59965V38.1462C33.9827 38.519 34.1305 38.8766 34.3939 39.1404C34.6572 39.4042 35.0146 39.5526 35.3873 39.553H38.2016C38.3863 39.5527 38.5692 39.516 38.7398 39.4451C38.9104 39.3741 39.0653 39.2702 39.1957 39.1393C39.3261 39.0084 39.4294 38.8532 39.4998 38.6823C39.5702 38.5115 39.6062 38.3285 39.6059 38.1437V24.0936C39.605 23.9095 39.641 23.7271 39.7117 23.5571C39.7824 23.3872 39.8863 23.233 40.0174 23.1038C40.1485 22.9746 40.3041 22.8729 40.4751 22.8046C40.6461 22.7364 40.8289 22.703 41.013 22.7065L49.4445 22.8379C49.6283 22.8414 49.8108 22.8082 49.9816 22.7401C50.1523 22.6721 50.3078 22.5707 50.4388 22.4419C50.5699 22.313 50.6739 22.1593 50.7448 21.9897C50.8157 21.8202 50.852 21.6381 50.8516 21.4544V12.8443C50.8519 12.6595 50.8885 12.4765 50.9594 12.3059C51.0304 12.1352 51.1342 11.9801 51.2651 11.8496C51.396 11.7191 51.5513 11.6156 51.7221 11.5451C51.893 11.4746 52.076 11.4384 52.2609 11.4386H66.311C66.6841 11.4382 67.0422 11.586 67.3064 11.8495C67.5706 12.1129 67.7195 12.4705 67.7202 12.8436V32.7008C67.7201 33.073 67.5724 33.43 67.3094 33.6935C67.0463 33.9569 66.6896 34.1052 66.3173 34.1058H63.676C63.4913 34.1055 63.3085 34.0687 63.1381 33.9977C62.9676 33.9266 62.8128 33.8227 62.6826 33.6919C62.5523 33.561 62.4491 33.4057 62.3788 33.235C62.3085 33.0642 62.2726 32.8813 62.2731 32.6966V18.6464C62.2734 18.4617 62.2373 18.2787 62.1669 18.1079C62.0965 17.9371 61.9932 17.7818 61.8628 17.651C61.7324 17.5201 61.5775 17.4162 61.4069 17.3452C61.2364 17.2742 61.0535 17.2375 60.8688 17.2372H58.0545C57.6798 17.2383 57.3204 17.3863 57.0536 17.6495C56.7868 17.9126 56.6339 18.27 56.6277 18.6447L56.497 26.8998C56.4901 27.2747 56.3366 27.6321 56.0693 27.8952C55.8021 28.1583 55.4424 28.3062 55.0674 28.3072H46.6359C46.4509 28.3073 46.2678 28.3439 46.097 28.4147C45.9262 28.4856 45.771 28.5895 45.6403 28.7203C45.5097 28.8512 45.4061 29.0065 45.3354 29.1774C45.2648 29.3484 45.2286 29.5315 45.2287 29.7165V43.7666C45.2287 44.1404 45.0803 44.4988 44.816 44.7631C44.5517 45.0274 44.1933 45.1759 43.8195 45.1759H29.7694C29.5844 45.1763 29.4011 45.1403 29.2301 45.0698C29.0591 44.9993 28.9036 44.8957 28.7727 44.765C28.6418 44.6343 28.538 44.4791 28.4672 44.3082C28.3964 44.1373 28.36 43.9541 28.3601 43.7691V7.22252C28.3604 6.84976 28.2126 6.49215 27.9493 6.22834C27.6859 5.96453 27.3286 5.81612 26.9558 5.81575H24.1416C23.7689 5.81612 23.4116 5.96448 23.1482 6.22822C22.8849 6.49195 22.7371 6.84947 22.7373 7.22217V55.0152C22.7371 55.2001 22.7006 55.3831 22.6297 55.5539C22.5587 55.7246 22.4549 55.8797 22.324 56.0103C22.1932 56.141 22.0378 56.2445 21.8669 56.3151C21.696 56.3856 21.5129 56.4218 21.328 56.4216H7.27788C6.90412 56.4216 6.54568 56.2731 6.2814 56.0088C6.01712 55.7446 5.86864 55.3861 5.86864 55.0124V40.9622C5.86897 40.7775 5.8329 40.5945 5.7625 40.4237C5.6921 40.2529 5.58875 40.0976 5.45835 39.9668C5.32795 39.8359 5.17305 39.732 5.00249 39.661C4.83194 39.59 4.64907 39.5533 4.46433 39.553H1.65008C1.46567 39.553 1.28306 39.5167 1.11268 39.4461C0.942298 39.3755 0.787489 39.2721 0.657086 39.1417C0.526684 39.0113 0.423242 38.8565 0.352669 38.6861C0.282095 38.5157 0.245772 38.3331 0.245772 38.1487V35.3344Z" fill="#F24E1E"/>
</svg>
