<svg width="131" height="131" viewBox="0 0 131 131" fill="none" xmlns="http://www.w3.org/2000/svg">
<path fill-rule="evenodd" clip-rule="evenodd" d="M113.936 78.8137C112.47 75.4067 111.12 73.9616 108.515 72.7777C106.078 71.6698 102.519 70.7392 97.3276 70.0595C91.9207 69.4937 91.7672 67.8104 90.4117 65.1055C90.0157 64.2918 88.0562 64.0753 87.2098 64.6616C87.0906 64.5844 86.9663 64.5138 86.8381 64.4505C86.9532 64.0621 86.0098 62.9505 86.0411 62.5796C86.3704 58.707 84.2553 56.7625 78.9767 56.04C77.8293 55.8826 70.0314 55.7897 68.912 55.9755C64.0187 56.7854 59.2016 59.3583 59.9389 62.4572C58.4028 63.6592 56.8995 64.3932 54.5298 64.7804C50.8394 65.0608 52.6933 96.3729 59.1025 115.132C61.8526 123.181 127.607 109.482 124.636 105.45C125.057 104.712 124.289 103.9 124.636 103.136C124.886 102.584 125.529 102.356 125.852 101.809C126.306 101.04 125.813 100.007 125.3 99.222C125.09 98.8312 125.686 98.4096 125.852 98.0103C126.638 96.1268 124.839 96.2927 123.541 95.034C123.56 95.0297 123.897 94.1311 123.896 94.1353C124.094 93.4936 123.597 92.6715 123.163 92.136C122.87 91.7741 122.242 91.5473 121.618 91.5889C122.246 90.3103 123.041 89.2464 123.896 88.0149C125.408 85.8442 126.847 83.5729 129.018 81.608C129.907 80.8028 129.189 80.0628 127.75 80.0079C123.092 79.8312 118.485 79.4295 113.936 78.8137Z" fill="#D08B5B"/>
<path fill-rule="evenodd" clip-rule="evenodd" d="M106.666 79.0771L96.0327 89.8542C96.0327 89.8542 98.5549 90.005 99.576 90.2987C100.597 90.5925 105.284 94.1617 105.284 94.1617L106.028 96.1267L104.264 97.7111L104.953 98.7056C104.953 98.7056 105.444 98.0319 106.666 97.5084C107.888 96.9855 110.584 96.1267 110.584 96.1267C110.584 96.1267 109.688 95.8396 109.688 95.5024C109.688 95.1653 108.899 93.7275 110.584 93.1847C112.269 92.6413 120.976 91.3705 120.976 91.3705L129.801 80.2219L106.666 79.0771Z" fill="#AFAFAF"/>
<path fill-rule="evenodd" clip-rule="evenodd" d="M59.2324 64.8535L92.9944 68.4023L108.514 72.7773L111.048 73.9461L96.0317 89.8545L72.8456 92.3882L66.9387 101.578L68.1445 111.937L105.864 109.244L122.134 108.086L125.959 117.334L125.268 121.138L124.263 123.067L83.9281 129.59C83.9281 129.59 63.3885 128.397 59.7475 128.397C56.1066 128.397 29.4121 129.985 29.4121 129.985L23.2356 129.59C23.2356 129.59 9.57042 120.963 7.45089 117.893C5.33147 114.823 0.748291 96.1601 0.748291 96.1601L1.25292 93.2929L13.0594 75.0944C13.0594 75.0944 14.636 74.2374 16.6236 72.7773C18.6113 71.3171 59.2324 64.8535 59.2324 64.8535Z" fill="#FF734F"/>
<path fill-rule="evenodd" clip-rule="evenodd" d="M120.338 91.1406C117.286 91.2335 114.232 91.6683 111.473 92.4554C110.343 92.7781 109.32 93.2437 109.02 94.0096C108.869 94.4011 108.906 94.8051 108.987 95.2008C109.047 95.4999 109.063 95.8817 109.497 96.0844C109.571 96.1187 109.649 96.1453 109.732 96.164C108.714 96.4396 107.744 96.7701 106.883 97.1109C106.095 97.4221 105.286 97.9022 104.922 98.4438C104.892 98.3822 104.862 98.3249 104.831 98.2701C104.212 97.1736 103.258 96.2749 101.755 95.6712C101.584 95.2985 99.7527 93.6954 98.0518 93.7557C96.1882 93.8215 94.6903 93.9029 93.0055 94.4161C92.3914 94.4083 91.7782 94.4131 91.1722 94.4294C91.0682 94.4312 91.0732 94.5163 91.1722 94.5229C91.6641 94.5603 92.155 94.6013 92.6469 94.6502C93.8145 94.7617 94.9791 94.9041 96.1185 95.0802C97.4851 95.2925 98.8992 95.5048 100.176 95.8751C102.654 96.594 104.187 98.4727 103.872 100.108C103.82 100.376 103.647 101.187 103.025 101.103C102.5 101.032 102.292 100.376 102.108 100.133C101.617 99.4878 100.731 99.0668 99.6699 98.7815C98.4225 98.4456 97.0882 98.2188 95.7953 97.9546C95.064 97.8044 94.3317 97.6543 93.5974 97.5047C92.8469 97.3509 92.1338 97.138 91.3338 97.246C90.851 97.3111 90.7955 97.6561 91.0662 97.8539C91.4793 98.1555 92.0914 98.2441 92.6853 98.3678C93.4701 98.5312 94.2529 98.6947 95.0347 98.8581C96.2448 99.1096 97.5124 99.3225 98.6922 99.6313L98.6548 99.6814C98.5588 99.6651 98.4457 99.723 98.4649 99.7935C98.6416 100.446 98.8871 101.199 98.6144 101.853C98.3992 102.371 97.6397 102.945 96.6538 102.792C96.8084 102.708 96.866 102.562 96.7619 102.427C96.371 101.927 91.255 99.9528 90.7995 100.686C90.7843 100.711 90.8308 100.731 90.8682 100.727C91.257 100.678 91.9085 101.076 92.2196 101.202C92.6681 101.383 93.1247 101.561 93.5691 101.747C94.0559 101.951 94.5297 102.164 94.9933 102.385C95.3569 102.559 95.6306 102.739 96.0478 102.827C95.8296 102.889 95.6559 103.005 95.5822 103.154C95.3933 103.539 95.0296 103.867 94.3984 104.038C93.7378 104.215 92.9923 104.103 92.2954 104.146C91.3459 104.204 90.5177 104.474 89.8258 104.86C88.3743 105.673 87.6451 107.105 85.6138 107.488C84.4007 107.717 83.0543 107.573 81.8261 107.469C80.4544 107.353 79.1181 107.261 77.7363 107.383C76.4131 107.498 75.1626 107.773 73.9546 108.108C72.8213 108.421 71.5698 108.776 70.5648 109.243C70.358 108.861 70.1493 108.483 69.9909 108.093C69.6175 107.171 69.4156 106.231 69.3666 105.284C69.3213 104.381 69.4055 103.475 69.5349 102.577C69.599 102.128 69.7 101.681 69.7639 101.233C69.7806 101.12 69.8143 100.999 69.8396 100.878C71.6335 100.244 73.5183 99.758 75.4182 99.258C75.4232 99.2574 75.4283 99.255 75.4333 99.2544C75.4929 99.2381 75.5495 99.223 75.6091 99.2079C75.6071 99.2055 75.6051 99.2037 75.602 99.2019C75.8192 99.1223 75.9707 99.0161 76.0616 98.8973C78.7999 97.8093 81.0887 96.3244 82.7947 94.5922C83.5098 93.8667 84.1987 93.1134 85.134 92.4777C86.131 91.7992 87.3137 91.3957 88.7773 91.1858C90.4894 90.9404 92.253 90.7932 94.0065 90.7094C94.964 90.6642 96.0347 90.5936 97.0781 90.5966C97.8053 90.5996 98.5164 90.6364 99.1699 90.7444C100.138 90.9036 100.703 91.3445 101.31 91.7902C101.891 92.2178 102.469 92.646 103.01 93.0917C103.523 93.5139 104.008 93.9505 104.429 94.4083C104.682 94.6821 104.915 94.9644 105.112 95.2557C105.182 95.3588 105.273 95.4758 105.314 95.5826C105.357 95.6905 105.279 95.8045 105.481 95.8045C104.648 95.8112 104.094 97.0554 104.922 97.0264C106.087 96.986 106.672 96.1501 106.443 95.4083C106.036 94.0844 103.838 92.4862 103.404 92.1478C102.444 91.4 101.452 90.4241 99.9143 90.0761C99.8921 90.0713 99.8689 90.0665 99.8467 90.0622C100.294 89.8077 100.648 89.5037 100.986 89.1943C101.334 88.8753 101.75 88.5104 101.865 88.1323C101.936 87.8916 101.437 87.7547 101.199 87.9652C100.855 88.2728 100.688 88.6618 100.43 88.9995C100.168 89.3421 99.8487 89.666 99.5962 90.0116C98.9881 89.9 98.3316 89.8487 97.6639 89.8312C98.5073 89.1479 99.9477 87.8289 100.12 87.66C100.918 86.8754 101.678 86.0672 102.403 85.2572C103.187 84.3803 103.859 83.4671 104.609 82.58C105.035 82.077 105.465 81.5697 105.937 81.0818C106.1 80.9141 106.276 80.7471 106.474 80.5951C106.513 80.5649 106.562 80.5396 106.607 80.5113C106.66 80.4938 106.713 80.4751 106.743 80.4648C107.016 80.3713 107.112 80.1536 107.304 80.0155C107.61 79.7924 107.97 79.7664 108.431 79.7634C109.414 79.7574 110.4 79.7803 111.382 79.7966C112.824 79.8207 114.264 79.8551 115.705 79.9003C116.141 79.9142 116.575 79.9287 117.011 79.9449C119.107 80.0191 121.199 80.1168 123.288 80.2368C125.136 80.343 126.984 80.5155 128.834 80.5981C126.33 84.1619 123.553 87.6606 120.409 91.0381C120.376 91.0725 120.353 91.1062 120.338 91.1406ZM106.443 100.322C106.039 100.433 105.647 100.57 105.283 100.728C105.343 100.483 105.359 100.225 105.341 99.966C105.642 100.159 106.028 100.27 106.443 100.322ZM123.685 94.1912C123.657 94.1936 123.63 94.2026 123.617 94.2195C123.058 94.9101 123.291 95.6815 124.204 96.2225C124.682 96.5047 125.724 96.8238 125.69 97.287C125.661 97.6621 124.98 97.9769 124.688 98.2863C124.418 98.5746 124.317 98.8913 124.534 99.2037C124.811 99.6042 125.587 99.7634 125.853 100.157C126.19 100.655 125.643 101.257 125.259 101.692C124.902 102.094 124.441 102.496 124.135 102.921C122.083 103.558 117.429 104.713 116.868 104.778C116.184 104.857 115.5 104.933 114.813 105.003C113.496 105.14 112.175 105.267 110.849 105.38C110.096 105.443 109.34 105.506 108.585 105.555C107.925 105.597 107.181 105.655 106.649 105.357C105.577 104.757 106.178 103.749 106.857 103.143C106.87 103.131 106.87 103.119 106.865 103.109C107.504 103.02 108.142 102.915 108.778 102.841C110.002 102.7 111.233 102.581 112.467 102.475C115.002 102.258 117.553 102.115 120.101 101.971C120.732 101.935 120.739 101.34 120.101 101.376C116.44 101.576 112.761 101.766 109.15 102.189C108.244 102.293 107.345 102.412 106.452 102.547C106.03 102.609 105.577 102.707 105.134 102.71C105.107 102.71 105.081 102.71 105.054 102.709C104.187 102.693 104.061 102.248 104.537 101.879C104.596 101.833 104.657 101.787 104.719 101.744C105.561 101.143 106.609 100.742 107.689 100.327C108.899 100.228 110.106 100.008 111.291 99.8466C114.216 99.4473 117.141 99.0487 120.067 98.65C120.641 98.5716 120.397 98.0433 119.823 98.1211C117.602 98.4226 115.38 98.7236 113.158 99.0252L109.907 99.4666C109.257 99.5547 108.446 99.7308 107.683 99.7947C107.305 99.8255 106.94 99.8297 106.61 99.7833C105.545 99.6325 105.491 98.8346 105.95 98.3611C106.466 97.8286 107.438 97.4957 108.302 97.1947C109.798 96.6712 111.39 96.2955 112.945 95.8618C113.221 95.8256 113.497 95.7894 113.773 95.7527C115.378 95.541 117.213 95.4372 118.724 95.0494C119.177 94.9342 118.93 94.5066 118.482 94.5126C117.309 94.5283 116.082 94.778 114.936 94.9264C113.696 95.0874 112.453 95.2478 111.213 95.4083C111.089 95.4239 110.351 95.5651 110.24 95.5343C110.17 95.5138 110.144 95.3667 110.121 95.2702C110.045 94.9517 109.99 94.617 110.073 94.2973C110.254 93.5802 111.252 93.2437 112.261 92.9687C114.51 92.3565 116.975 91.9735 119.43 91.8203C119.994 91.7847 120.56 91.763 121.129 91.7516C121.797 91.7395 122.348 91.6689 122.686 92.0634C123.218 92.684 123.51 93.4825 123.685 94.1912ZM120.563 116.707C120.073 115.692 120.207 114.609 119.871 113.573C119.697 113.039 119.461 112.509 119.203 111.988C118.994 111.566 118.647 111.119 118.608 110.679C118.606 110.65 118.663 110.633 118.703 110.646C119.394 110.884 119.925 111.396 120.319 111.798C120.79 112.28 121.151 112.783 121.442 113.314C122.021 114.37 122.496 115.643 121.75 116.707C121.528 117.024 120.746 117.087 120.563 116.707ZM101.444 124.39C100.713 124.085 100.181 123.659 99.5618 123.282C98.9538 122.912 99.9052 122.342 100.514 122.712C101.043 123.033 101.501 123.434 102.123 123.694C102.422 123.819 102.561 124.045 102.365 124.246C102.191 124.423 101.742 124.515 101.444 124.39ZM97.372 112.661C98.7053 112.316 100.015 111.94 101.41 111.692C102.245 111.543 102.597 112.321 101.769 112.469C100.484 112.698 99.279 113.04 98.0518 113.358C97.2639 113.561 96.5791 112.867 97.372 112.661ZM83.2977 112.42C82.9715 111.938 84.2745 111.73 84.5957 112.205C84.9653 112.752 85.3896 113.285 85.7593 113.831C86.0845 114.313 84.7815 114.52 84.4603 114.046C84.0906 113.499 83.6674 112.966 83.2977 112.42ZM69.406 122.039C69.1889 122.213 68.8269 122.306 68.4849 122.184C68.1984 122.081 68.0236 121.807 68.2434 121.632C68.8851 121.12 69.5353 120.614 70.2874 120.157C70.8971 119.786 71.8486 120.357 71.2395 120.727C70.5679 121.135 69.9792 121.581 69.406 122.039ZM67.4195 68.0659C68.0374 68.3186 68.5788 68.6256 69.1068 68.9417C69.7205 69.309 68.7683 69.8795 68.1546 69.5122C67.7098 69.2456 67.2611 68.9754 66.7399 68.7619C66.4388 68.6389 66.3037 68.4097 66.4984 68.2101C66.6729 68.0316 67.1191 67.9429 67.4195 68.0659ZM87.6299 81.0438C87.2804 81.463 86.9663 81.8737 86.9461 82.3502C86.9249 82.8689 85.5785 82.8689 85.6007 82.3502C85.6259 81.7266 86.0098 81.1862 86.4673 80.6367C86.8552 80.1717 88.0157 80.5806 87.6299 81.0438ZM95.0448 70.6207C95.769 70.3319 96.4417 71.0303 95.7246 71.3167C95.1428 71.5489 94.561 71.7818 93.9802 72.014C93.256 72.3028 92.5833 71.6038 93.3004 71.3173C93.8822 71.0851 94.463 70.8529 95.0448 70.6207ZM62.8819 88.8445C62.7584 89.3572 61.4612 89.1377 61.5835 88.6304C61.7729 87.8458 62.0039 87.0714 62.3592 86.3072C62.5918 85.8072 63.8902 86.0213 63.6574 86.5219C63.3021 87.2861 63.0711 88.0599 62.8819 88.8445ZM58.1611 98.0831C57.2946 98.0722 57.2944 97.2653 58.1611 97.2767C58.9453 97.2864 59.7163 97.41 60.4727 97.5234C61.3142 97.6488 60.9554 98.4269 60.1148 98.3008C59.4753 98.2049 58.8242 98.0915 58.1611 98.0831ZM56.419 116.693C56.1214 116.78 55.8159 116.858 55.5149 116.94C54.9123 117.105 54.31 117.271 53.7078 117.436C52.4534 117.781 51.1996 118.127 49.9469 118.474C47.4393 119.17 44.9125 119.841 42.3988 120.528C39.8355 121.23 37.279 121.941 34.7255 122.655C33.5226 122.991 32.3106 123.315 31.1008 123.643C30.0665 123.923 28.788 124.413 27.6525 124.459C27.5941 124.461 27.5746 124.417 27.6079 124.394C28.0369 124.102 28.7212 123.932 29.2849 123.742C29.8608 123.548 30.4475 123.365 31.0315 123.18C32.249 122.793 33.4679 122.41 34.6971 122.038C37.156 121.292 39.6194 120.552 42.0834 119.813C44.5964 119.06 47.1061 118.301 49.6412 117.573C50.8347 117.231 52.0294 116.89 53.2248 116.55C53.8725 116.365 54.5203 116.181 55.1683 115.998C55.4482 115.918 55.7252 115.833 56.0113 115.762C56.3915 115.668 56.6804 115.687 57.0726 115.629C57.712 115.534 57.9889 116.022 57.498 116.234C57.0938 116.408 56.881 116.558 56.419 116.693ZM47.431 124.962C47.2928 124.761 47.5821 124.517 47.9011 124.466C48.2834 124.406 48.5898 124.545 48.7293 124.748C49.0984 125.285 49.6241 125.779 50.3009 126.196C50.9057 126.568 49.9542 127.139 49.3488 126.766C48.5007 126.244 47.8915 125.633 47.431 124.962ZM40.8186 112.017C40.2047 111.65 41.1569 111.079 41.7705 111.447L43.5154 112.492C44.1292 112.859 43.1769 113.43 42.5633 113.062L40.8186 112.017ZM22.9164 110.313C21.6619 110.533 20.1989 110.736 19.3435 111.377C19.3018 111.408 19.2316 111.368 19.2568 111.337C20.3517 109.977 23.4917 109.5 25.6657 109.024C27.2034 108.687 28.7812 108.407 30.3722 108.158C30.2132 107.071 30.6517 105.906 30.8042 104.824C30.967 103.669 31.0994 102.51 31.1674 101.351C31.237 100.169 31.2537 98.9793 31.1888 97.7972C31.1241 96.6193 30.8689 95.4559 30.7571 94.2816C30.7464 94.1683 31.0102 94.1628 31.0671 94.2563C31.7279 95.3461 32.0101 96.553 32.2251 97.7013C32.4466 98.8852 32.5202 100.065 32.4919 101.255C32.4626 102.479 32.3438 103.7 32.1807 104.92C32.1035 105.498 32.0138 106.076 31.9292 106.653C31.8645 107.094 31.8345 107.532 31.6844 107.959C32.644 107.818 33.6059 107.684 34.5646 107.554C37.6218 107.141 40.6919 106.758 43.7363 106.311C45.2307 106.092 46.7038 105.829 48.1915 105.596C49.5924 105.376 51.071 105.109 52.5094 105.012C53.0226 104.977 53.0879 105.397 52.7482 105.54C51.5792 106.032 50.0266 106.374 48.6765 106.649C47.3214 106.925 45.9127 107.124 44.5238 107.328C41.6272 107.755 38.7033 108.104 35.7838 108.468C32.8682 108.831 29.9471 109.191 27.0644 109.639C25.6761 109.855 24.2926 110.071 22.9164 110.313ZM16.0427 88.7372C15.2932 89.0008 14.6164 88.3035 15.3633 88.0406C16.3406 87.6968 17.3822 87.4387 18.4321 87.1872C19.238 86.9942 19.5846 87.774 18.7901 87.9646C17.8465 88.1908 16.9209 88.4284 16.0427 88.7372ZM13.328 118.699C12.5764 118.961 11.8991 118.263 12.6485 118.003C13.7011 117.638 14.8537 117.394 15.9444 117.074C16.7204 116.847 17.402 117.543 16.6238 117.771C15.5333 118.09 14.3805 118.334 13.328 118.699ZM12.1074 101.692C12.8342 102.105 13.804 102.299 14.7185 102.517C15.5159 102.706 15.1662 103.486 14.3606 103.295C13.2212 103.024 12.0606 102.777 11.1554 102.261C10.5256 101.903 11.4794 101.334 12.1074 101.692ZM20.1472 78.5934C20.9461 78.7809 20.5962 79.5608 19.7893 79.3708C18.8943 79.1603 17.9699 79.0005 17.075 78.79C16.2763 78.6024 16.6259 77.8232 17.433 78.0126C18.3279 78.2224 19.2522 78.3829 20.1472 78.5934ZM34.3298 69.4187C35.1786 69.3331 35.5401 70.1099 34.6878 70.1962C33.6302 70.3035 32.5888 70.4284 31.5857 70.6612C30.7758 70.8487 30.4282 70.0683 31.2278 69.8831C32.231 69.6509 33.2723 69.5255 34.3298 69.4187ZM39.0158 91.7564C38.2374 91.5272 38.9204 90.8324 39.6953 91.0604C40.5118 91.3004 41.3578 91.4868 42.2488 91.6002C43.0972 91.7087 42.7359 92.4856 41.8908 92.3782C40.8881 92.2497 39.934 92.0272 39.0158 91.7564ZM43.4416 79.1742C44.2797 79.0366 44.6341 79.8147 43.7996 79.9516C42.3312 80.1928 40.8194 80.3177 39.3402 80.5324C38.4972 80.6548 38.1407 79.8768 38.9823 79.755C40.4614 79.5402 41.9734 79.4148 43.4416 79.1742ZM62.2176 75.2256C63.0698 75.3196 62.7067 76.0971 61.8598 76.003C60.9583 75.9029 60.0446 75.9016 59.1306 75.901C58.2628 75.901 58.2643 75.0947 59.1306 75.0947C60.1689 75.0953 61.194 75.1116 62.2176 75.2256ZM123.453 79.4389C121.254 79.3129 119.051 79.2122 116.844 79.1362C116.741 79.1331 116.641 79.1289 116.538 79.1259C116.526 79.112 116.511 79.0988 116.496 79.0849C115.775 78.4516 115.245 77.8183 114.787 77.1031C114.347 76.4215 113.921 75.7189 113.244 75.1037C112.472 74.4029 111.431 73.8547 110.29 73.38C109.597 73.6587 108.954 73.9855 108.367 74.3317C107.747 74.696 106.795 74.1255 107.414 73.7612C107.936 73.4536 108.495 73.1695 109.084 72.9126C108.403 72.6647 107.709 72.4319 107.031 72.2003C104.491 71.3324 101.891 70.5297 99.2376 69.7963C98.0033 69.4543 96.7548 69.151 95.4983 68.8434C94.8216 68.6781 94.1529 68.4652 93.4762 68.274C93.5257 67.9875 93.3822 67.6667 93.0156 67.4785C92.7449 67.3404 92.5338 67.2885 92.2116 67.1908C92.1388 67.1757 92.0954 67.1667 92.0752 67.1619C92.0904 67.1637 92.1338 67.1721 92.2055 67.186C92.3772 67.2336 92.3914 67.2192 92.2469 67.1444C92.2378 66.9815 91.7015 66.6366 91.5783 66.4683C91.151 65.8905 91.0177 65.2795 90.3864 64.7536C89.5167 64.0287 88.0561 63.7543 86.6946 64.0003C86.5532 63.1282 86.5158 62.2181 85.9673 61.4395C85.9522 61.4184 85.9037 61.4093 85.8815 61.4329C85.3098 62.0167 85.2603 62.6668 85.2169 63.3399C85.1744 63.972 85.2148 64.6185 85.3532 65.2464C85.2653 65.2868 85.1764 65.3254 85.0835 65.3622C84.6492 65.5335 84.1815 65.6655 83.6906 65.7638C82.7543 65.949 81.7735 66.0298 80.7928 66.0582C78.2595 66.1305 75.6495 65.9773 73.1587 65.7174C70.6396 65.4538 66.7768 65.0588 64.535 64.3037C63.0556 63.8061 61.6909 63.1982 60.3074 62.6089C60.809 61.6415 60.937 60.6012 60.432 59.7833C60.3714 59.6856 60.1157 59.6675 60.0669 59.7833C59.7504 60.5638 59.6579 61.3478 59.2371 62.1192C59.2305 62.1301 59.2237 62.1427 59.2169 62.1536C59.0857 62.0999 58.9544 62.0474 58.8232 61.995C58.5202 61.8749 58.1079 61.9648 57.9262 62.1361C55.0196 64.8797 50.4168 65.0365 45.5834 65.5268C40.2937 66.063 34.9775 66.6414 29.8917 67.6908C25.028 68.695 20.3797 70.157 16.6974 72.3408C15.8638 72.8348 15.0843 73.3619 14.3485 73.9114C15.0604 73.965 15.7664 74.0489 16.4633 74.1803C17.2884 74.3353 16.9338 75.114 16.1054 74.9578C15.2096 74.7895 14.3041 74.7057 13.3892 74.6646C10.8872 76.7146 8.9363 79.0397 7.24939 81.3279C4.01354 85.715 1.90735 90.3873 0.938092 95.1447C1.4703 94.9535 2.012 94.7714 2.56723 94.6025C3.33872 94.3673 4.0191 95.0633 3.2468 95.2985C2.38915 95.5603 1.55615 95.8479 0.749007 96.1604C0.396392 98.2423 0.259731 100.338 0.342557 102.43C0.539419 107.419 1.66362 112.553 4.20657 117.312C5.45359 119.648 7.10626 121.965 9.5684 123.939C10.6825 124.833 11.9481 125.64 13.4392 126.312C14.1612 126.638 14.9253 126.93 15.7314 127.176C16.7698 127.494 18.1229 127.599 19.0182 128.05C19.3127 128.198 19.5399 128.393 19.7115 128.614C19.6122 129.034 19.6005 129.454 19.7923 129.873C19.8529 130.005 20.0178 130.112 20.2215 130.163C20.2248 130.199 20.2248 130.234 20.2248 130.268C20.2248 130.285 20.2652 130.289 20.2703 130.273C20.2786 130.241 20.2871 130.21 20.2955 130.178C20.3612 130.191 20.4302 130.197 20.5009 130.197C23.0572 130.203 25.6169 130.165 28.1766 130.113C27.9787 129.75 27.7643 129.39 27.5584 129.027C27.2789 128.534 28.5797 128.324 28.8566 128.813C29.0975 129.237 29.3492 129.658 29.5733 130.085C32.3159 130.023 35.0578 129.95 37.7948 129.896C43.616 129.78 49.4357 129.741 55.2585 129.668C64.3011 129.553 73.4092 129.318 82.4664 129.548C82.7796 129.15 83.1301 128.761 83.4624 128.368C83.8543 127.904 85.0158 128.313 84.6249 128.775C84.3936 129.048 84.1543 129.317 83.927 129.59C85.7613 129.647 87.5935 129.722 89.4228 129.825C92.5429 130.001 95.6327 130.312 98.7497 130.505C101.918 130.703 105.018 130.668 108.162 130.355C108.727 130.298 109.06 130.093 109.199 129.839C109.204 129.838 109.207 129.836 109.21 129.833C109.372 129.72 109.523 129.627 109.68 129.545C109.867 129.472 110.069 129.411 110.306 129.357C110.748 129.255 111.21 129.194 111.678 129.153C112.193 129.106 112.714 129.102 113.229 129.064C113.663 129.031 114.088 128.981 114.512 128.921C115.274 128.812 115.998 128.67 116.718 128.481C117.346 128.317 117.913 128.081 118.448 127.824C119.555 127.339 120.515 126.72 121.353 126.077C121.841 125.701 122.3 125.311 122.718 124.904C123.445 124.201 124.064 123.47 124.69 122.733C124.918 122.515 125.125 122.291 125.314 122.062C124.09 121.847 122.856 121.671 121.558 121.658C120.691 121.65 120.691 120.844 121.558 120.852C123.046 120.866 124.453 121.074 125.851 121.322C125.92 121.214 125.984 121.105 126.045 120.994C126.211 120.763 126.35 120.526 126.464 120.286C126.532 120.178 126.598 120.069 126.666 119.959C126.817 119.582 126.969 119.205 127.122 118.827C127.427 118.222 127.667 117.608 127.844 116.986C127.992 116.576 128.106 116.164 128.184 115.747C128.419 114.736 128.611 113.727 128.624 112.704C128.604 112.074 128.538 111.445 128.423 110.819C128.374 110.394 128.292 109.971 128.181 109.55C128.036 108.925 127.893 108.306 127.652 107.689C127.472 107.272 127.292 106.854 127.112 106.437C126.663 105.567 126.133 104.714 125.522 103.88C125.488 103.828 125.318 103.713 125.215 103.712C125.138 103.711 125.03 103.753 125.065 103.81C125.069 103.815 125.072 103.821 125.076 103.826C125.041 103.778 125.006 103.73 124.971 103.682C124.941 103.638 124.824 103.55 124.733 103.551C124.728 103.551 124.722 103.551 124.716 103.552C124.739 103.542 124.761 103.529 124.783 103.514C125.387 103.085 125.779 102.521 126.211 102.025C126.57 101.616 126.908 101.184 127.006 100.722C127.091 100.316 126.976 99.9154 126.55 99.5867C126.065 99.2127 125.153 99.0372 125.66 98.4968C126.236 97.8823 127.082 97.3485 126.239 96.6501C125.809 96.2942 125.13 96.0988 124.625 95.7894C124.044 95.4312 123.768 94.9523 123.783 94.4638C123.819 94.4758 123.866 94.4698 123.882 94.4391C124.37 93.5561 124.017 92.5863 123.518 91.7262C123.245 91.26 122.667 91.1316 121.995 91.1086C124.903 87.7065 127.626 84.2494 130.051 80.7127C130.131 80.5969 130.21 80.4811 130.289 80.3653C130.407 80.1916 130.158 79.9606 129.87 79.9226C127.773 79.647 125.589 79.5595 123.453 79.4389Z" fill="black"/>
<path fill-rule="evenodd" clip-rule="evenodd" d="M100.901 40.4423C99.7487 32.007 96.2387 24.5359 79.7463 24.2173C72.3042 24.2572 64.7063 25.2063 57.8621 26.9625C41.2267 31.9693 35.9486 50.2647 50.6048 57.6293C50.5176 57.6589 50.4967 57.7451 50.5997 57.7867C53.6276 59.0093 56.9933 60.0159 60.3642 60.8608C69.3432 63.1394 79.913 64.1297 89.0703 61.6575C103.046 58.0883 103.255 48.1557 100.901 40.4423Z" fill="#D08B5B"/>
<path fill-rule="evenodd" clip-rule="evenodd" d="M128.409 36.511C128.983 36.2005 129.411 35.7932 129.628 35.3365C129.826 34.9202 129.84 34.4656 129.629 34.0502C129.405 33.6046 128.919 33.2498 129.028 32.786C129.041 32.7407 129.056 32.6933 129.079 32.6459C129.499 31.7729 130.531 31.1428 130.163 30.175C130.058 29.9019 129.862 29.6558 129.588 29.4623C129.618 29.2526 129.645 29.0409 129.667 28.8292C130.273 27.9774 130.252 26.9652 129.605 26.1265C129.525 25.697 129.406 25.2716 129.239 24.8532C129.316 24.4832 129.208 24.076 129.01 23.7523C128.662 23.1829 128.232 22.6219 127.765 22.07C127.819 21.9191 127.795 21.7596 127.657 21.6178C127.404 21.36 127.071 21.1334 126.731 20.9119C126.489 20.6535 126.247 20.3973 126.005 20.1443C125.894 20.0281 125.771 19.8991 125.636 19.7625C126.005 19.3506 126.202 18.9492 125.811 18.4648C125.665 18.2829 125.261 18.1487 124.928 18.1605C124.564 18.1736 124.197 18.1833 123.829 18.1917C123.139 17.6919 122.358 17.2431 121.521 16.9849C120.672 16.5534 119.813 16.13 118.976 15.6975C118.739 15.5746 118.501 15.4515 118.264 15.3285C118.262 15.3255 118.26 15.3215 118.259 15.3185C118.084 14.9364 117.887 14.5594 117.691 14.1803C117.568 13.9454 117.532 13.6995 117.15 13.5714C116.354 13.3042 115.13 13.2619 114.217 13.2165C114.126 13.1682 114.035 13.1208 113.944 13.0724C114.359 12.409 114.286 11.7044 113.763 11.04C113.585 10.8142 112.967 10.7124 112.628 10.8616C111.845 11.2064 110.916 11.3284 109.998 11.2779C108.647 10.6549 103.201 7.83764 102.36 7.54031C102.35 7.52957 102.34 7.5189 102.33 7.50834C101.857 7.05486 101.282 6.69075 100.637 6.39879C100.545 6.34101 100.452 6.28317 100.36 6.22527C100.441 5.87962 100.655 5.54586 100.998 5.26655C101.034 5.23435 101.077 5.20305 101.119 5.17283C101.72 4.74335 100.986 4.19095 100.147 4.41574C100.086 4.43184 100.025 4.448 99.9648 4.46513C99.3194 4.63792 98.6053 4.82573 97.8619 4.98423C97.5891 4.92302 97.3114 4.86759 97.0589 4.8065L94.3489 4.15253C93.9024 4.04488 93.4317 3.95363 92.9994 3.82709C92.8489 3.22639 91.8469 2.83237 90.8045 2.85294C90.8651 2.73762 90.955 2.62562 91.0813 2.51947C91.1176 2.48823 91.158 2.45796 91.2005 2.42876C91.7358 2.05471 91.0207 1.36113 90.255 1.69381C90.2015 1.71703 90.146 1.74019 90.0924 1.76341C89.8793 1.85303 89.6611 1.9371 89.4409 2.01852C89.0884 1.92619 88.6915 1.90514 88.2763 2.00284C87.3562 2.21906 86.5077 2.4389 85.6986 2.77785C85.6653 2.79166 85.631 2.80324 85.5976 2.81627C85.1956 2.52472 84.5573 2.32973 83.9825 2.33184C83.9714 2.33184 83.9623 2.33178 83.9512 2.33166C83.5219 1.93861 82.7341 1.71015 81.9735 1.7657C82.025 1.20166 81.0836 0.6983 80.2271 0.637144C79.2271 0.565753 78.3251 0.914458 78.0252 1.50039C77.9413 1.66347 77.8575 1.82667 77.7737 1.98994C76.9969 1.75454 76.1777 1.57415 75.3212 1.48416C73.3708 1.2791 71.4638 1.49743 69.5842 1.82245C69.3965 1.8549 69.2089 1.88831 69.0213 1.92154C68.7533 1.73518 68.5019 1.54435 68.2616 1.36619C67.8467 1.05872 66.8509 1.30467 66.9181 1.6999C66.9647 1.97257 66.7802 2.16876 66.4831 2.3082C66.1568 2.33679 65.8414 2.34547 65.3658 2.33975C64.7372 2.33209 64.4512 2.32026 63.7938 2.16641C63.4876 2.09488 63.1062 1.90665 62.9276 1.73765C62.2433 1.08978 60.505 0.915242 59.677 1.53301C58.8057 1.30407 57.7057 1.6198 57.222 2.06502C56.969 2.29777 56.4409 2.42792 55.7763 2.53986C55.2773 2.62369 54.7672 2.6872 54.2546 2.74275C54.0262 2.55675 53.5452 2.43208 53.1924 2.58805C52.9534 2.69396 52.7213 2.80276 52.4924 2.91427C50.7274 3.06023 48.9715 3.06548 47.2886 2.65234C45.8638 2.30253 44.5556 3.25793 44.7907 4.05996C44.378 4.1889 43.9304 4.27473 43.5228 4.40977C42.6335 4.70475 41.9034 5.17102 41.4583 5.71883C41.3785 5.8169 41.3065 5.91653 41.2378 6.01659C40.9054 6.17901 40.5767 6.34577 40.256 6.5217C39.7219 6.35735 39.1896 6.19306 38.6556 6.02871C38.2558 5.90574 37.5824 5.99144 37.5035 6.31001C37.3741 6.83418 37.0601 7.26872 36.6117 7.63264C35.154 8.09234 33.7517 8.60849 32.4098 9.18211C30.8666 9.47245 29.2257 9.64181 27.8772 9.83233C27.4154 9.89783 27.1635 10.2598 27.4237 10.5007C27.6992 10.7558 27.9746 11.0108 28.2484 11.2659C27.4808 11.7155 26.7604 12.1853 26.0803 12.6711C24.1876 14.022 22.6039 15.503 21.1865 17.0716C20.6256 17.2077 20.0647 17.3428 19.5037 17.4788C18.963 17.6099 18.7195 17.987 19.1578 18.2642C19.366 18.3962 19.5524 18.5354 19.712 18.6815C18.9177 19.4709 17.9823 20.1907 16.6739 20.6625C16.2759 20.8056 15.977 21.0304 15.8175 21.2855C15.6814 21.3399 15.5471 21.3984 15.4145 21.4579C15.045 21.6252 14.8215 21.9902 15.2549 22.2069C15.5588 22.3602 15.8443 22.5416 16.0862 22.7422C16.1383 22.8561 16.192 22.9711 16.2457 23.085C15.0298 23.7564 14.0188 24.5366 13.2598 25.4117C13.0801 25.3946 12.8954 25.4057 12.7459 25.4722C11.3889 26.074 11.3486 27.0328 11.8944 27.8896C11.5653 29.181 11.7768 30.5047 12.4116 31.7558C11.577 32.2558 11.0749 32.9776 10.87 33.6732C10.5089 34.895 10.4837 36.7741 10.3897 38.0212C9.47941 38.5484 8.83114 39.2309 8.47015 39.9648C8.16612 40.0556 7.86219 40.1463 7.55826 40.237C7.28787 40.3176 7.08969 40.5303 7.10646 40.7098C7.18373 41.5778 7.77987 42.2633 8.57085 42.8843C8.85135 43.3632 9.26618 43.8047 9.8103 44.2281C10.1865 44.5185 10.5542 44.7967 10.8783 45.1102C10.912 45.1415 10.9321 45.1707 10.9472 45.1909C10.8196 45.2735 10.7138 45.4106 10.6214 45.5084C9.84556 46.329 9.83384 47.2908 10.9355 48.0055C10.5207 48.2092 10.5072 48.6204 10.8733 48.8725C13.2563 50.5066 15.2432 52.4937 18.5498 53.3616C18.565 53.3767 18.5784 53.3919 18.5901 53.407C17.92 54.3748 17.8294 54.8778 18.3769 55.8781C18.3802 55.8872 18.3853 55.895 18.3903 55.9041C18.6825 56.4282 19.2199 57.2683 20.1889 57.4311C20.4946 57.483 20.7952 57.5059 21.0924 57.5047C21.8616 57.9498 22.6291 58.3949 23.3966 58.8406C23.4638 59.0614 23.5057 59.2845 23.5191 59.5089C23.541 59.8852 24.1304 60.1898 24.7653 60.0788C24.9887 60.0396 26.2247 59.3183 26.4514 59.3225C26.5656 59.3913 26.6764 59.4594 26.7873 59.5294C27.1954 59.7863 27.7613 60.1916 27.8084 60.4606C27.899 60.9678 28.4532 61.5486 29.3483 61.6512C29.6842 61.8562 30.2216 61.9177 30.633 61.6506C30.6599 61.6331 30.6868 61.6162 30.7154 61.6011C30.759 61.5981 30.801 61.5951 30.8446 61.5921C31.0428 61.9467 31.241 62.3013 31.4409 62.6553C31.8322 63.3532 33.3268 63.8019 34.3882 63.3942C34.5595 63.4557 34.7274 63.5214 34.8954 63.5872C35.1507 63.6849 35.4092 63.7844 35.6746 63.8785C35.6897 63.9044 35.7049 63.9309 35.7183 63.9557C35.8896 64.2693 36.6016 64.4376 37.04 64.2572C37.176 64.2838 37.3154 64.3049 37.4564 64.3218C38.197 64.4098 38.9427 64.3851 39.6582 64.2373C40.1704 64.1324 40.6591 63.9315 41.2099 63.9044C41.2443 63.9026 41.2797 63.9044 41.3147 63.9038C41.7641 64.4563 42.791 64.9327 43.6004 65.0944C44.6603 65.306 45.7452 65.2307 46.7106 64.9707C46.9711 65.2837 47.2982 65.5793 47.689 65.8531C47.9057 66.0045 48.297 65.9719 48.5203 65.8531C48.9445 65.6275 49.366 65.4007 49.7869 65.1734C50.0916 65.1028 50.399 65.0184 50.7198 64.94C51.723 64.6939 52.8229 64.592 53.7507 64.2367C54.1912 64.0678 54.6056 63.8525 54.9469 63.6028C55.5897 63.3803 56.1803 63.1023 56.7123 62.7844C56.9777 62.7856 57.2549 62.7482 57.5235 62.6662C58.647 62.3236 59.2382 61.6264 59.2902 60.9123C60.2005 59.6271 60.7379 58.2562 60.8856 56.8528C60.9327 56.392 60.9411 55.927 60.8823 55.4668C60.842 55.1417 60.7059 54.9252 60.5011 54.6318C60.4322 54.5361 60.3701 54.4484 60.3214 54.3516C60.3331 54.0411 60.3399 53.7306 60.3466 53.4211C60.486 53.16 60.7345 52.9171 61.0805 52.7124C61.6162 52.3958 61.8614 51.7386 61.3744 51.3474C61.0569 51.0944 60.7412 50.8414 60.4238 50.5883C60.5128 49.5026 60.9461 47.7746 59.9855 47.5932C60.0242 47.4319 60.1065 47.2726 60.1534 47.1123C60.3785 46.3421 60.2442 45.6536 59.5623 44.9801C59.4195 44.84 59.2986 44.716 59.1995 44.5951C59.1374 44.3733 59.0753 44.1515 59.0132 43.9297C58.9174 43.588 58.8234 43.2432 58.7428 42.8964C58.7008 42.4548 58.6622 42.0133 58.6202 41.5707C58.5816 41.1634 58.5378 40.7562 58.4925 40.3479C58.511 40.1654 58.5378 39.983 58.5765 39.8005C58.8066 38.7127 59.5472 38.3105 60.8303 37.5544C61.0318 37.5353 61.2316 37.5141 61.4281 37.4899C62.3434 37.376 63.3006 37.1996 64.2428 37.2631C65.2655 37.3316 66.1808 37.5968 67.175 37.258C67.4672 37.1572 68.1104 36.879 68.1658 36.6582C68.1692 36.6441 68.1742 36.632 68.181 36.6229C68.2498 36.6169 68.3388 36.6118 68.3943 36.6108C69.1835 36.5947 69.9376 36.7812 70.7335 36.7298C71.6759 36.6693 72.5193 36.4183 73.0728 36.0463C73.7839 36.1511 74.5091 36.1985 75.2465 36.14C75.8646 36.0916 76.4181 35.9707 76.9656 35.7912C77.3636 35.6622 77.2383 35.6249 77.6716 35.7297C78.6575 35.9696 79.5483 36.2862 80.6584 36.1219C81.2352 36.0372 81.7321 35.8507 82.1503 35.5997C82.2493 35.5412 82.4169 35.4535 82.5301 35.3709C83.0573 35.5311 84.3835 35.893 84.6017 35.9253C85.2199 36.016 85.8754 36.0019 86.4764 35.881C86.9178 35.7923 87.4592 35.5503 87.847 35.5009C88.3491 35.4364 89.4642 35.8558 90.0631 35.9999C91.1146 36.2529 92.2277 36.3155 93.2933 36.0544C93.659 35.9646 94.3711 35.6067 94.6448 35.6098C95.0902 35.9394 96.3326 37.7429 96.7053 38.4012C98.2154 41.0627 98.6063 49.3725 97.9093 51.4926C97.8831 51.5551 97.8538 51.6165 97.8255 51.6791C96.969 53.5229 96.0771 55.398 94.6448 57.1157C93.2933 58.7351 91.4237 60.1928 88.742 61.077C85.9602 61.9943 82.6957 62.235 79.5685 62.1107C77.5555 62.0323 75.5757 61.7893 73.6273 61.4847C72.6092 61.3267 71.6001 61.1506 70.5961 60.9666C70.1575 60.887 69.7125 60.8128 69.2826 60.7199C68.5236 60.5553 68.1255 60.5426 67.3984 60.7531C66.7367 60.9449 66.5671 61.51 66.9113 61.8659C67.4723 62.4467 68.5 62.4871 69.4925 62.6566C70.5032 62.829 71.5183 62.9943 72.5385 63.1421C74.495 63.4243 76.4838 63.6414 78.4888 63.741C82.0796 63.9219 85.7794 63.6433 89.047 62.703C89.4167 62.5956 89.7732 62.4823 90.1177 62.3592C89.9894 62.466 89.8601 62.5727 89.7288 62.6789C89.3662 62.972 89.6349 63.4708 90.1439 63.6312C90.3056 63.6819 90.4661 63.7301 90.6298 63.7771C90.651 63.8085 90.6752 63.8399 90.7015 63.8712C91.1671 64.4315 92.1408 64.7626 93.1337 64.9056C94.3125 65.0751 95.6326 64.955 96.8316 64.9339C97.9427 64.9134 99.0547 64.8935 100.165 64.873C100.427 64.8694 100.689 64.864 100.951 64.8591C102.271 64.835 103.589 64.8115 104.908 64.7874C106.083 64.7663 106.028 64.8211 107.131 64.5383C107.623 64.4116 108.026 64.2319 108.366 63.9931C108.577 63.937 108.782 63.8724 108.979 63.7989C109.61 63.5624 110.171 63.2464 110.688 62.8972C111.566 63.0637 112.798 62.9093 112.968 62.247C113.244 61.1874 115.538 60.735 116.61 59.9691C117.474 59.3509 118.092 58.5415 118.06 57.7641C120.241 57.1308 121.426 55.4626 121.703 54.0471C121.833 53.3909 121.813 52.6882 121.998 52.0208C122.081 51.9674 122.155 51.9109 122.218 51.8504C122.765 51.3192 123.242 50.7718 123.661 50.2113C124.233 49.9643 124.92 49.8121 125.638 49.7869C127.404 49.7254 127.738 48.2948 126.053 47.9501C126.045 47.948 126.038 47.9471 126.03 47.945C126.486 47.2595 126.448 46.448 125.893 45.7988C125.916 45.7282 125.939 45.6587 125.961 45.5881C126.906 44.9782 127.449 44.1304 127.388 43.3047C127.819 43.1222 128.303 42.9811 128.833 42.8934C129.65 42.7583 129.655 42.1595 129.051 41.8913C128.807 41.7834 128.605 41.6575 128.438 41.5183C128.856 40.7642 128.691 39.8922 127.837 39.2733C128.379 38.8559 128.921 38.4386 129.464 38.0212C129.823 37.745 130.013 37.2762 129.464 37.014C129.112 36.8457 128.762 36.6784 128.409 36.511Z" fill="black"/>
<path fill-rule="evenodd" clip-rule="evenodd" d="M88.933 52.1763C89.5107 51.5659 91.2329 51.6651 91.4965 52.377C92.0309 53.8199 89.1582 55.1524 86.9765 55.1856C84.8089 55.2187 82.3756 54.1134 82.6898 52.7171C82.7675 52.3717 83.5372 52.4136 83.7998 52.6302L83.9018 52.7133C84.6149 53.2871 85.5553 53.881 86.8795 53.7411C87.428 53.6833 87.9259 53.478 88.2572 53.2138C88.6572 52.8949 88.6138 52.5142 88.933 52.1763ZM75.1466 41.6193C75.4405 41.5708 75.7365 41.5896 75.9971 41.6559C76.5778 41.7197 77.0637 42.0101 77.2344 42.3415C77.2475 42.3702 77.2627 42.3985 77.2798 42.4266L77.3051 42.4684L77.2354 42.3622C77.2677 42.4668 77.4101 42.5768 77.4617 42.6819C77.5243 42.811 77.5394 42.9577 77.5182 43.0998C77.7031 43.1009 77.8879 43.1046 78.0727 43.1142L78.2505 43.1238C79.2475 43.1793 80.3414 43.2811 80.9322 43.797C81.2646 44.0869 80.9535 44.6089 80.3434 44.6648C79.405 44.7508 78.596 44.4397 77.6606 44.3774C76.7768 44.3184 75.8516 44.3522 74.9789 44.4479C73.177 44.6452 71.5204 45.0827 69.7649 45.3572L69.5259 45.3935L69.5263 45.3929C69.2253 45.4364 68.8837 45.1858 69.1814 45.0392C70.5882 44.347 72.3891 43.7859 74.1638 43.4443C73.9052 43.198 73.8254 42.8736 74.0022 42.6091C74.0294 42.5544 74.0628 42.5011 74.0991 42.448L74.1739 42.3387C74.181 42.2872 74.1971 42.2362 74.2214 42.1863L74.2254 42.1711L74.2274 42.1721C74.3597 41.9149 74.7042 41.6923 75.1466 41.6193ZM93.0945 41.659C93.4793 41.4284 94.0197 41.4625 94.4207 41.644L94.4742 41.669C94.853 41.7697 95.1661 41.9897 95.3711 42.1937C95.5853 42.4055 95.7267 42.6213 95.7328 42.8544C96.664 42.8562 97.5559 43.0236 98.2397 43.474C98.4609 43.6194 98.6114 43.8436 98.4902 44.0406L98.4175 44.1579C98.1882 44.5301 97.1559 44.7444 96.8044 44.3067L96.7883 44.2853C96.4156 43.7655 94.9853 43.8201 94.2247 43.8732C93.6944 43.9104 93.1702 43.9894 92.6591 44.0778C92.4783 44.1089 92.2995 44.1427 92.1208 44.1772L91.942 44.2119C91.847 44.2304 91.3511 44.3918 91.6602 44.3536C91.743 44.3433 91.8046 44.4156 91.7208 44.44C91.3521 44.5453 90.9602 44.3356 90.9844 44.0988C91.0269 43.6879 92.1167 43.4627 92.6409 43.321L92.6722 43.3124C92.8733 43.2568 93.0833 43.2034 93.3005 43.1539C93.1783 43.0451 93.0773 42.9241 92.9935 42.7942C92.9137 42.6716 92.8611 42.5525 92.8318 42.4221C92.8036 42.3584 92.8036 42.2947 92.8318 42.2309L92.8369 42.2126C92.8217 42.1705 92.8147 42.1269 92.8157 42.0831L92.8126 42.0661H92.8157C92.8258 41.9125 92.9278 41.7587 93.0945 41.659ZM86.9462 46.0347C88.4249 46.3082 90.8632 47.0535 90.0925 48.2039C89.0178 49.2604 86.1654 48.4839 84.7826 48.1426C83.5412 47.8962 82.8948 48.9387 84.0948 49.2529C94.0177 51.6043 93.9813 45.3985 87.3068 45.4896C86.5714 45.4996 86.5482 45.9437 86.9462 46.0347ZM73.8183 37.9428L74.0709 37.8987C75.3809 37.6714 76.7182 37.2788 77.8818 37.8914C78.3384 38.1319 78.4323 38.6318 78.1061 38.9317C77.3606 39.6154 76.2566 39.5109 75.0547 39.5692C74.1385 39.6136 73.2365 39.7747 72.382 39.976C71.6841 40.1406 71.0366 40.3723 70.4246 40.6308C69.8238 40.885 69.4133 41.2823 68.7971 41.511C68.5712 41.5949 68.3103 41.5086 68.2292 41.3726C67.9418 40.8902 68.4275 40.2893 68.8385 39.8783C69.3402 39.3768 70.1022 38.9667 70.9215 38.6564C71.8194 38.3166 72.8113 38.1204 73.8183 37.9428ZM92.9096 37.4238C95.1237 37.4234 97.2549 38.1613 98.4933 39.2428C98.9145 39.6103 98.6064 40.1547 98.0024 40.3663C97.3246 40.6038 96.5994 40.4328 96.1529 40.0924L96.1267 40.0718C95.4156 39.5051 94.5005 39.0589 93.4146 38.7683C92.8854 38.6265 92.2995 38.5114 91.7268 38.4531L91.542 38.4341C91.2824 38.4081 90.9814 38.3831 90.7461 38.4075C90.6208 38.4174 90.5046 38.4423 90.3986 38.4802C90.4501 38.5471 90.3178 38.6278 90.1956 38.5877C89.6451 38.4066 89.7128 38.0836 90.1673 37.8326C90.8107 37.4774 92.0793 37.4239 92.9096 37.4238Z" fill="black"/>
<path fill-rule="evenodd" clip-rule="evenodd" d="M87.9885 49.9574C86.1169 49.4524 82.7554 49.8931 81.5352 50.0683C78.6989 50.4757 75.8455 51.3564 74.9637 52.7359C73.9698 54.2908 75.9526 54.7802 76.2445 54.7003C78.208 54.7832 80.5463 54.0437 82.6039 53.8528C84.2745 53.6966 86.0371 53.5602 87.6017 53.0285C88.7451 53.405 91.3258 53.6086 93.4085 53.9378C95.1822 54.2181 95.9509 54.8258 97.5953 54.6967C99.5669 54.5418 98.7599 52.0585 96.563 51.0525C94.159 49.9516 90.0925 49.505 87.9885 49.9574ZM91.6934 60.5757C90.0561 60.8145 89.946 58.665 89.7632 57.9051C89.6198 57.3122 88.8117 55.7815 86.7623 55.8478C84.7129 55.9136 83.9432 57.1958 84.0462 57.9931C84.1139 58.51 84.9098 61.1293 82.3705 61.461C80.7514 61.4574 78.8787 61.3923 77.1768 61.2041C75.1738 60.9321 72.5678 59.9804 71.88 61.8549C71.6325 62.5292 80.4575 64.5327 84.3735 64.7143C88.3451 65.1962 92.9914 64.4549 95.8196 62.6353C96.462 62.221 98.274 60.5027 98.4033 60.0817C98.675 59.1969 98.0468 58.6276 96.2196 58.9394C94.9287 59.3525 92.7469 60.4219 91.6934 60.5757Z" fill="black"/>
<path fill-rule="evenodd" clip-rule="evenodd" d="M102.865 46.6435C100.821 47.9082 97.4104 48.2711 94.6913 47.5928C87.7117 45.8459 91.1278 40.397 96.5114 38.9337C97.1841 38.8333 98.0821 38.5951 98.9012 38.5411C98.975 38.5193 99.1366 38.5823 99.3315 38.5228C105.268 38.9197 106.619 44.4394 102.865 46.6435ZM80.3493 46.9671C78.0575 48.7878 73.797 49.3496 70.3163 48.5032C63.4395 46.8809 65.8786 42.0491 70.584 40.1549C80.5221 37.9178 84.627 43.6099 80.3493 46.9671ZM65.4421 42.9328C65.4357 42.931 65.4292 42.9301 65.4227 42.9283C65.459 42.9187 65.4954 42.9091 65.5315 42.8994C65.5198 42.9178 65.507 42.9361 65.4956 42.9545C65.4777 42.9471 65.4621 42.9386 65.4421 42.9328ZM107.595 40.9647C107.034 40.9654 106.223 41.0206 105.76 41.2538C104.614 38.9399 100.386 36.7984 96.7094 38.3599C93.8135 38.9178 91.6651 40.1548 90.4439 41.7994C88.242 41.0149 84.7795 41.3499 82.8705 42.3874C81.62 39.9124 78.5423 39.0457 74.8798 38.9178C70.882 38.5255 66.8968 40.8513 65.6535 42.7171C64.6196 42.6466 63.0749 42.4495 62.1023 42.8317C55.7901 41.8402 44.7542 41.2934 43.4709 41.8444C42.5564 42.0546 42.0546 43.3476 43.3319 43.4174C44.445 43.3227 43.2019 42.4699 44.324 42.3769C50.3023 42.1549 56.1059 42.8761 62.021 43.1787C62.549 43.6043 64.2554 43.7466 65.1657 43.5756C63.732 46.7407 66.827 48.894 71.4648 49.539C78.6453 50.527 84.8926 46.6793 83.0149 42.6771C85.1896 42.0289 87.6915 42.0567 90.0611 42.3982C86.1017 51.1274 109.572 50.7357 105.906 41.553C108.345 42.2798 108.875 41.1114 107.595 40.9647Z" fill="black"/>
</svg>
