<svg width="131" height="131" viewBox="0 0 131 131" fill="none" xmlns="http://www.w3.org/2000/svg">
<path d="M111 81.7817H73.0193V114.429H111V81.7817Z" fill="#FF734F"/>
<path fill-rule="evenodd" clip-rule="evenodd" d="M61.9409 49.8502C66.035 47.674 76.3131 46.6954 80.6832 48.7905C84.9986 50.8946 85.4698 54.2974 87.4802 57.4272C89.3776 56.8025 92.5118 57.6974 93.0613 58.926C93.7437 59.5057 93.7744 61.1347 94.2455 61.9139C114.718 64.1884 117.826 75.3296 120.291 87.9786C123.551 100.814 130.951 113.621 127.739 126.829C128.157 127.251 128.488 127.662 128.792 128.15C129.524 129.019 128.582 130.248 127.107 130.2C125.198 130.083 123.307 129.924 121.389 129.874C116.073 129.745 110.751 129.761 105.431 129.808L104.705 129.814C77.8981 130.047 51.0924 130.506 24.2839 130.628C23.3113 130.629 22.8352 130.02 22.965 129.419C23.2266 128.21 23.4692 127.001 23.7225 125.791C17.3816 126.96 10.6405 127.254 4.31759 125.914C3.87523 125.599 5.34821 125.77 5.58188 125.722C-0.237222 122.946 1.50057 117.099 2.01603 112.887C5.22135 98.457 6.35125 82.4904 18.7354 70.1767C24.0929 65.1511 31.9476 61.1721 40.9732 60.2773L41.2236 60.2531C43.8627 60.0072 46.8039 59.9282 49.1113 58.926C51.7065 57.4799 52.8124 54.8078 55.5426 54.7829C56.4441 54.7746 57.6705 55.5711 58.9902 56.1113C59.0887 54.9228 60.0067 53.9192 60.2094 52.9974L60.2258 52.9184C60.4373 51.8435 60.1477 50.8766 61.9409 49.8502ZM105.94 88.3596C100.187 85.5697 85.324 86.9716 84.9838 87.1281C84.2339 87.4716 83.9116 87.5021 83.5059 87.9488C83.1062 87.9862 82.7065 88.0243 82.3068 88.0638C81.5064 88.2467 82.0995 88.9344 83.0249 88.6892C82.4685 90.3646 84.107 91.5566 84.7586 93.2133C84.9709 93.7508 84.7666 94.7183 84.7586 95.2676C84.8221 95.9685 85.932 96.7961 85.7475 97.4991C85.0899 99.9987 81.5203 102.437 83.0249 104.861C84.0217 106.229 87.02 106.928 89.0136 107.393C93.1426 108.499 100.338 107.351 102.738 104.861C104.017 103.532 105.5 100.181 106.264 99.1413L106.432 97.4922C106.85 93.3934 107.221 88.9808 105.94 88.3596Z" fill="#EDB98A"/>
<path fill-rule="evenodd" clip-rule="evenodd" d="M55.3297 54.7905L56.9763 55.4956L66.5391 58.7958C68.3929 59.1581 69.3199 59.5923 69.3199 60.0979V65.2523C69.3199 65.9421 71.0594 67.5053 74.5387 69.9419L77.7533 67.7048L77.6819 67.4118C77.3754 66.1499 77.2226 65.3056 77.2226 64.8797C77.2226 64.4212 80.3678 62.6807 86.658 59.6574L89.4093 57.8491L89.1158 57.2264C90.8128 57.2825 92.6527 58.0118 93.0613 58.9261C93.7437 59.5058 93.7744 61.1348 94.2455 61.9139C114.718 64.1884 117.826 75.3296 120.291 87.9786C123.551 100.814 130.951 113.621 127.739 126.829C128.157 127.251 128.488 127.662 128.792 128.15C129.524 129.019 128.582 130.248 127.107 130.2C125.198 130.083 123.307 129.924 121.389 129.874C116.073 129.745 110.751 129.761 105.431 129.808L104.705 129.814C77.8981 130.047 51.0924 130.506 24.2839 130.628C23.3113 130.629 22.8352 130.02 22.965 129.419C23.2266 128.21 23.4692 127.001 23.7225 125.791C17.3816 126.96 10.6405 127.254 4.31759 125.914C3.87523 125.599 5.34821 125.77 5.58188 125.722C-0.237222 122.946 1.50057 117.099 2.01603 112.887C5.22135 98.457 6.35125 82.4905 18.7354 70.1767C24.0929 65.1512 31.9476 61.1722 40.9732 60.2773L41.2236 60.2531L41.4759 60.2302C44.0488 60.0017 46.8771 59.8964 49.1113 58.9261C51.6379 57.5187 52.7529 54.9484 55.3297 54.7905ZM78.2432 85.0413C77.305 85.0413 75.3848 86.058 72.4807 88.0915L72.2248 88.174C68.7145 89.3119 66.389 90.2995 65.2484 91.1362L65.2077 91.166C64.0554 92.029 61.7735 94.3236 58.3621 98.0498L53.4218 100.089H51.5526L50.2218 106.827L53.4218 111.639L60.6703 109.934L72.4807 107.761L79.2579 102.962L83.0804 102.066C82.6172 103.001 82.4486 103.932 83.0249 104.861C84.0217 106.229 87.02 106.928 89.0126 107.393C93.1426 108.499 100.338 107.351 102.738 104.861C104.017 103.532 105.5 100.181 106.263 99.1413L106.482 96.9991C106.877 93.0464 107.169 88.9559 105.939 88.3596C100.186 85.5698 85.323 86.9716 84.9828 87.1281C84.2339 87.4716 83.9116 87.5021 83.5059 87.9489L83.2967 87.9683L84.4759 86.8518L84.0584 86.6959C81.0779 85.5933 79.1399 85.0413 78.2432 85.0413ZM83.0249 88.6892C82.4923 90.2933 83.9711 91.4541 84.6704 93.0035L82.8831 90.6161V88.7204C82.9297 88.7121 82.9773 88.7017 83.0249 88.6892Z" fill="white"/>
<path fill-rule="evenodd" clip-rule="evenodd" d="M54.5404 54.541C54.9376 54.2958 55.5254 54.604 55.273 54.9358C54.7057 55.681 54.1239 56.3875 53.3627 57.0468C52.9011 57.4458 52.4067 57.8239 51.9057 58.1972C53.1915 58.9743 54.2942 59.9377 55.3357 60.8416C56.6673 61.9969 57.9263 63.2013 59.4211 64.2589C60.8954 65.3013 62.5255 66.0306 64.4965 66.5168L64.8945 66.613C66.8745 67.0979 68.9907 67.7538 70.1068 69.0621C70.3269 69.3197 69.8837 69.639 69.5112 69.4776C67.5718 68.6396 65.2932 68.4713 63.1822 67.9172C61.1431 67.3825 59.3654 66.559 57.7948 65.5083C56.2268 64.4591 54.9103 63.2657 53.537 62.0973C52.1789 60.942 50.7168 59.9551 49.1105 58.9778C46.6318 60.1421 43.8023 60.6484 40.9253 61.1456L40.6111 61.1997C37.7306 61.6976 34.8655 62.276 32.1631 63.1424C29.7805 63.907 27.437 64.8192 25.4961 66.0631C23.4359 67.3832 21.8324 69.0683 20.3648 70.7167C17.0819 74.4048 14.7739 78.4455 12.742 82.5346C10.6287 86.7879 8.86105 91.127 7.434 95.5174C6.70827 97.7504 6.11882 99.9992 5.63431 102.264C5.40113 103.355 5.19404 104.448 5.01203 105.544C4.81783 106.713 4.7732 107.917 4.25903 109.042C4.03864 109.524 3.51823 109.724 2.99722 109.707L2.89149 110.631C2.75114 111.862 2.62032 113.094 2.57618 114.333C2.50288 116.394 2.53611 118.448 2.74846 120.504L2.77851 120.785C2.94534 122.285 3.31817 123.972 4.93477 125.07C6.60889 126.208 9.1834 126.566 11.4398 126.586C16.6953 126.634 21.7541 124.901 26.4047 123.38C31.1941 121.814 35.8528 120.076 40.3999 118.191C42.7155 117.23 45.0062 116.239 47.2676 115.218C48.3773 114.716 49.4793 114.207 50.5729 113.689C51.1993 113.393 51.7929 113.067 52.4306 112.804C52.1181 112.601 51.9786 112.282 52.2403 112.003C50.3969 110.886 49.6296 108.893 49.54 107.281C49.4675 105.978 49.7419 104.681 49.9585 103.391C50.0678 102.741 50.2028 102.092 50.343 101.444C50.3984 101.188 50.4406 100.915 50.5053 100.645C45.5276 102.554 40.4103 104.255 35.1576 105.765C32.4651 106.539 29.7381 107.236 26.9736 107.874L26.4132 108.002C23.7938 108.601 21.1115 109.167 18.4035 109.509C18.2588 109.527 18.1412 109.378 18.2958 109.33C20.9348 108.518 23.6653 107.832 26.344 107.083L26.7841 106.958C26.7336 106.956 26.6812 106.951 26.6264 106.942C25.0555 106.677 23.4968 106.269 21.956 105.926C20.5259 105.607 18.9194 105.407 17.5828 104.926C17.4799 104.889 17.5374 104.789 17.6376 104.784C19.14 104.712 20.7708 105.017 22.2437 105.197L22.7971 105.265C23.724 105.379 24.6715 105.501 25.5939 105.661C25.6274 105.446 25.7999 105.229 26.0456 105.102C28.7485 103.705 28.474 100.883 28.7632 98.8024L28.9775 97.2572C29.3545 94.5533 29.7534 91.8501 30.3594 89.1662C30.3918 89.0229 30.7094 89.0644 30.7107 89.1995C30.742 92.5261 30.3822 95.8374 30.2019 99.1584L30.1739 99.7035C30.0743 101.753 29.9961 103.881 28.1469 105.458C28.4055 105.352 28.7551 105.352 28.9646 105.526C29.222 105.74 29.3707 105.981 29.366 106.216C31.0369 105.727 32.7007 105.225 34.3562 104.713C39.6789 103.067 44.89 101.225 49.9634 99.2325C50.5094 99.0178 51.0283 99.1861 51.2983 99.4694L51.3373 99.4652C51.3438 99.4645 51.3504 99.4639 51.3572 99.4639L51.3958 99.4632H51.4001C52.1143 99.1889 53.0872 99.3842 53.7 99.7838C53.7181 99.7956 53.7335 99.8088 53.7496 99.8212C54.5255 99.5781 55.25 99.2498 55.9074 98.8343C57.2528 97.9831 58.3924 96.9303 59.3858 95.8755C61.2154 93.9313 62.7694 91.7697 65.2407 90.1698C67.2488 88.8698 69.7382 88.0608 72.3498 87.5525C72.3389 87.4991 72.3677 87.4424 72.4212 87.405C72.5551 87.3087 72.6504 87.2754 72.8239 87.3336C72.8378 87.3385 72.8457 87.3447 72.8517 87.3516L73.1066 87.0483C73.2454 86.8827 73.3883 86.7172 73.4379 86.6736C73.7344 86.4125 74.0399 86.1541 74.3494 85.9006C74.875 85.4719 75.4731 85.0494 76.1664 84.7516C77.6839 84.1012 79.2798 84.4697 80.8399 84.825C81.7822 85.0397 82.7215 85.262 83.6627 85.4802L83.7599 85.5024C84.4621 85.6596 85.2824 85.7974 85.5968 86.3162C85.7208 86.5219 85.7396 86.7345 85.6821 86.9416C92.3472 85.7586 99.7493 86.3023 106.253 87.691C106.503 87.7443 106.752 87.8877 106.804 88.0754C107.549 90.7433 107.881 93.4784 107.544 96.1913C107.254 98.533 106.51 100.828 105.109 102.972L105.03 103.093C103.713 105.08 101.627 107.529 98.4401 108.152C96.5159 108.528 94.3874 108.306 92.4256 108.238C90.5183 108.171 88.5693 108.161 86.6799 107.952C84.9977 107.765 83.5229 107.238 82.4834 106.284C81.5868 105.46 81.1147 104.464 80.7269 103.474C80.5503 103.514 80.3738 103.555 80.2012 103.602C79.4702 103.802 78.8513 104.123 78.2909 104.502C77.1086 105.301 76.1912 106.271 74.9544 107.035C73.8346 107.725 72.5581 108.262 71.1894 108.675C68.3533 109.53 65.3106 109.872 62.3104 110.325L62.1012 110.357C59.8426 110.703 57.5372 111.128 55.5436 111.949C55.5047 112.19 55.347 112.418 55.0941 112.566C55.4458 112.797 55.5947 113.162 55.2858 113.504C54.4227 114.46 52.936 115.004 51.6014 115.616L51.5146 115.656C50.2017 116.264 48.8773 116.859 47.5422 117.442C44.828 118.628 42.0571 119.749 39.2471 120.821C34.7274 122.544 30.1107 124.17 25.4103 125.645C25.6925 126.613 25.5894 127.613 25.8014 128.588L25.834 128.727C25.9245 129.089 25.8022 129.392 25.4451 129.628L25.4073 129.652L25.4079 129.649L25.3743 129.67L25.3632 129.677L25.3669 129.675C25.3257 129.701 25.2833 129.726 25.2399 129.746L25.1848 129.771C24.8408 129.918 24.3979 129.915 24.0457 129.787L24.0054 129.771L23.9378 129.744C23.4724 129.557 23.1514 129.095 23.3445 128.727C23.819 127.823 23.9983 126.858 24.4365 125.948L24.0888 126.057L23.6307 126.196C18.6753 127.692 13.1709 128.951 7.77172 127.932C5.38605 127.481 3.15631 126.528 1.96263 124.974C0.788096 123.445 0.622064 121.67 0.559677 119.97C0.48271 117.87 0.643983 115.739 1.04052 113.659C1.30673 112.262 1.62868 110.838 2.12519 109.456C1.86979 109.299 1.68204 109.073 1.63245 108.793C1.39808 107.473 1.8083 106.1 2.05933 104.787C2.30461 103.504 2.57569 102.225 2.88216 100.949C3.50097 98.3716 4.21995 95.8 5.05696 93.2533C6.5467 88.7209 8.51391 84.2689 10.8823 79.9235L11.0897 79.5453C13.2782 75.5732 15.8121 71.6864 19.3406 68.197C21.0285 66.5272 22.8128 65.0138 25.1978 63.8108C27.4321 62.6839 29.9525 61.8722 32.5534 61.2516C35.1571 60.631 37.8333 60.2155 40.5568 59.9564C43.3227 59.694 46.2423 59.5326 48.8225 58.7409C48.496 58.3323 48.7761 57.781 49.3254 57.5275C51.1741 56.6749 52.8835 55.566 54.5404 54.541ZM113.718 91.6125C113.796 91.5308 113.979 91.5827 113.945 91.6797C113.047 94.2506 112.203 96.8271 111.651 99.4472C110.657 104.176 110.839 108.967 110.92 113.731L110.924 113.978C110.967 116.544 111.025 119.11 111.147 121.676C111.208 122.971 111.329 124.28 111.263 125.578C111.227 126.281 110.958 126.947 110.863 127.642C110.78 128.25 110.854 128.868 110.896 129.476C110.923 129.881 110.067 129.864 110.01 129.476L109.935 128.975C109.838 128.341 109.719 127.71 109.421 127.104C109.063 126.373 108.891 125.656 108.767 124.889C108.577 123.715 108.492 122.528 108.419 121.345L108.368 120.527C108.062 115.583 108.073 110.616 108.569 105.677L108.605 105.325C109.096 100.657 109.949 95.6123 113.718 91.6125ZM94.5531 62.1908C94.318 62.1229 94.4003 61.875 94.6602 61.9186L95.1333 61.9969C98.5988 62.5766 102.001 63.2041 105.236 64.2824C108.473 65.3608 111.213 66.9718 113.39 68.952C117.622 72.8014 119.382 77.4793 120.77 82.1536C122.313 87.3468 123.718 92.5593 125.274 97.7511L125.564 98.7186C127.004 103.554 128.364 108.392 129.366 113.285L129.438 113.64C130.448 118.672 131.056 123.877 129.954 128.922C129.736 129.92 127.356 129.671 127.449 128.685C127.717 125.835 127.91 122.999 127.724 120.142C127.538 117.285 127.154 114.439 126.581 111.607C126.1 109.223 125.382 106.869 124.747 104.505L124.647 104.131C124.115 102.12 123.566 100.111 123.019 98.1008L122.202 95.0922C120.976 90.5875 119.726 86.0786 118.314 81.6023L118.229 81.3385C116.848 77.0319 114.81 72.5202 110.664 69.1002C106.458 65.6296 100.436 63.8814 94.5531 62.1908ZM79.2659 107.873C79.3671 107.716 79.7212 107.732 79.8303 107.873C80.2567 108.421 80.3034 109.122 80.3847 109.742L80.3926 109.806C80.4958 110.562 80.586 111.321 80.6416 112.08C80.7467 113.52 80.7973 114.958 80.7913 116.4C80.7844 117.877 80.7418 119.353 80.6277 120.829L80.5969 121.225C80.4928 122.507 80.3172 123.937 79.4444 125.058C79.127 125.466 78.2641 125.346 78.0807 124.934C77.4786 123.584 77.7881 121.984 77.9428 120.602L78.0618 119.524C78.1808 118.445 78.2939 117.366 78.3842 116.286C78.5071 114.809 78.6083 113.33 78.7065 111.852C78.7382 111.372 78.772 110.892 78.8087 110.413L78.8642 109.692C78.9118 109.09 78.9078 108.43 79.2659 107.873ZM11.5734 109.785L11.8399 109.606C12.6581 109.047 13.692 108.186 14.9015 108.239C15.3839 108.261 15.6911 108.54 15.5912 108.871C15.3775 109.579 14.3427 109.946 13.5979 110.379C12.7819 110.852 12.0128 111.358 11.2453 111.869C10.5643 112.322 9.90943 112.788 9.27029 113.268L9.03135 113.45C8.80224 113.623 7.17066 114.654 7.34711 114.921L7.35664 114.933C7.40573 114.984 7.324 115.054 7.24257 115.036C6.53807 114.881 6.58201 114.46 6.84832 114.033C7.36021 113.212 8.25643 112.453 9.03909 111.752C9.81967 111.053 10.6645 110.402 11.5734 109.785ZM81.8189 89.2064C81.2744 88.3081 79.2679 88.3268 78.1283 88.3808C75.2589 88.5159 72.1544 89.0229 69.6014 89.9586C66.9546 90.9289 65.1717 92.4845 63.5764 94.2035L63.5018 94.2846C61.9469 95.9718 60.4495 97.9685 58.0147 99.1286C56.7746 99.7194 55.3265 100.259 53.8219 100.493C53.7186 100.62 53.5512 100.72 53.3318 100.756L53.2298 100.773C52.8013 100.839 52.1356 100.912 51.5605 100.868C51.5643 101.064 51.5613 101.259 51.5685 101.445C51.5887 101.979 51.5973 102.514 51.5973 103.047C51.5977 104.165 51.5116 105.285 51.5785 106.403C51.6377 107.391 51.8376 108.424 52.5176 109.308C53.0163 109.956 53.6746 110.385 54.4693 110.795C56.424 109.963 58.6343 109.457 60.8776 109.075C63.5907 108.615 66.3685 108.307 69.0199 107.682C70.296 107.381 71.5226 106.988 72.6345 106.453C73.8138 105.885 74.7154 105.116 75.6427 104.365L75.7875 104.248C76.7337 103.491 77.7662 102.766 79.1032 102.355C80.2548 102.002 81.7723 101.939 82.779 101.391C83.3057 101.105 83.3493 100.689 83.4048 100.264C82.7601 100.328 82.0778 100.225 81.4351 100.172L81.1018 100.145C80.4938 100.095 79.9007 100.039 79.3026 99.9314C79.1915 99.9113 79.1915 99.7942 79.3026 99.7741C80.0088 99.6467 80.71 99.5927 81.4351 99.5331L81.6056 99.5186C82.2612 99.4583 82.9506 99.3676 83.5933 99.4687C83.7093 99.1619 83.876 98.8696 84.11 98.5759C84.4383 98.1645 85.0592 97.6977 85.1425 97.2164C85.1683 97.073 85.1197 96.9033 85.0225 96.7766L84.9898 96.7329C84.9491 96.6824 84.9005 96.6304 84.8301 96.5986C84.8222 96.6055 84.8053 96.6124 84.7696 96.62C84.2747 96.7295 83.8422 96.5598 83.6131 96.2994C82.6401 96.3839 81.5779 96.3555 80.6654 96.3832L79.743 96.4143C78.7571 96.4462 77.7266 96.46 76.8002 96.3208C76.6703 96.3014 76.6316 96.1511 76.7615 96.1123C77.9001 95.7723 79.2818 95.6642 80.5007 95.5333C81.1821 95.4606 81.8675 95.4052 82.5509 95.3408C83.0061 95.2979 83.4882 95.2272 83.9593 95.2099C85.1406 94.1835 84.5048 92.5641 82.8603 92.1223C82.2612 92.3058 81.7227 92.1991 81.0681 92.1597C80.4154 92.1209 79.7608 92.0939 79.1052 92.0959C77.791 92.1001 76.3985 92.3411 75.0972 92.2372C74.885 92.2206 74.6886 92.0239 74.8988 91.9041C75.8956 91.3369 77.3229 91.1519 78.5875 91.0307L78.8493 91.0065C79.2728 90.9677 79.7886 90.9109 80.3232 90.877C80.4442 90.7128 80.6614 90.5882 80.9867 90.557C81.0839 90.548 81.1811 90.5424 81.2783 90.5369L81.2773 90.53C82.0718 90.5037 82.0371 89.5666 81.8189 89.2064ZM27.408 106.737C27.3939 106.752 27.3786 106.767 27.3622 106.78L27.337 106.801L27.4677 106.764L27.408 106.737ZM95.6887 87.1986C92.3433 86.9471 88.9938 87.0005 85.6385 87.0677C85.3697 87.6806 84.4354 88.2021 83.5308 88.2222C84.24 88.9751 84.3124 89.9946 83.8155 90.7932C84.8708 91.0861 85.7803 91.6132 86.3317 92.3633C87.0974 93.4029 86.9973 94.5602 86.2405 95.5216C86.8862 95.9295 87.268 96.5923 87.2294 97.2164C87.1867 97.9131 86.5926 98.5074 86.0977 99.0843C85.5641 99.7076 85.5462 100.257 85.3826 100.955C85.1425 101.977 84.1547 102.597 82.8841 102.984L82.9516 103.169C83.2789 104.059 83.6865 104.998 84.6228 105.649C85.8279 106.487 87.6965 106.479 89.2874 106.532L89.3638 106.535C90.8208 106.585 92.2778 106.645 93.7348 106.703L94.8268 106.745C96.504 106.81 98.1148 106.817 99.4835 106.044C101.719 104.78 103.251 102.689 104.222 100.839C106.257 96.9539 106.282 92.6909 105.347 88.6447C102.213 87.9396 98.9618 87.4437 95.6887 87.1986ZM67.8687 93.6432L67.8933 93.6446C68.582 93.6993 69.0552 94.0886 69.2237 94.5505C69.4685 95.2217 69.3484 95.8284 69.9374 96.4344C70.5433 97.0578 70.9156 97.5564 71.0039 98.3259C71.0396 98.6431 71.0237 98.9589 71.1249 99.2685L71.1973 99.486C71.2757 99.7173 71.3391 99.9411 71.3005 100.19C71.2648 100.416 71.107 100.593 70.7809 100.666C69.719 100.902 68.899 100.357 68.6247 99.6654C68.3876 99.0691 68.7041 98.3578 68.3698 97.7974C68.1845 97.4872 67.8428 97.2274 67.6498 96.9144C67.4586 96.6048 67.3625 96.2807 67.3318 95.944C67.2736 95.3069 68.081 94.5415 67.6306 93.9639C67.5346 93.8406 67.6433 93.6398 67.8687 93.6432ZM53.7624 87.0677C54.4815 86.9658 55.2974 86.7324 56.0065 86.9264C56.3711 87.0261 56.5513 87.3364 56.2432 87.5525C55.7085 87.9265 54.9313 87.9473 54.2111 88.0359L54.1476 88.0435C53.296 88.1537 52.4429 88.2575 51.5886 88.3566C49.9812 88.5429 48.3702 88.707 46.7534 88.8463C45.0929 88.9896 43.4278 89.1178 41.7602 89.2133L41.1147 89.2507C39.7061 89.329 38.2405 89.3886 36.8584 89.2383C36.6576 89.2161 36.6899 89.0118 36.8584 88.9765C38.3725 88.6565 40.0334 88.5706 41.5987 88.4355C43.2628 88.2908 44.9242 88.1391 46.5813 87.9583C48.2357 87.7776 49.8879 87.5843 51.5339 87.3703C52.278 87.2741 53.0209 87.1729 53.7624 87.0677ZM79.7112 86.0412C79.0794 85.8847 78.3852 85.6541 77.7018 85.7309C76.5225 85.8646 75.4731 86.6666 74.5398 87.1944L75.0079 87.1314C77.4062 86.8093 80.5821 86.463 82.5955 87.5269C82.6005 87.5206 82.6044 87.5151 82.6104 87.5088C82.773 87.3364 82.9615 87.202 83.1668 87.0545C83.1866 87.0413 83.2055 87.0282 83.2243 87.015L83.3344 86.9326L83.0815 86.871C82.538 86.7373 81.8943 86.5641 81.7931 86.5385L81.7862 86.5371C81.0929 86.373 80.4006 86.2116 79.7112 86.0412ZM60.0071 50.954C59.9084 50.0682 61.8839 50.0758 61.9818 50.954C62.1952 52.8725 61.5768 54.773 60.2456 56.4547C60.2358 56.4664 60.225 56.4775 60.2148 56.4893C61.0473 56.792 61.8894 57.0815 62.7501 57.3412C63.8513 57.6729 64.9731 57.9749 66.115 58.2312C67.1479 58.4632 68.4206 58.5546 69.2889 59.0374C71.1199 60.0555 70.4322 62.1679 70.0799 63.5372L70.025 63.7533C69.8495 64.4577 69.7226 65.1807 70.1482 65.8567C70.6027 66.5791 71.5216 67.1145 72.3419 67.6319L72.5075 67.7364C73.2336 68.1984 74.0627 68.7594 74.5963 69.3855C75.0823 68.6839 75.7449 68.1105 76.4461 67.4643C76.946 67.0037 76.5899 66.852 76.2309 66.4018C75.8847 65.9689 75.7161 65.507 75.8242 65.0124C76.0236 64.0996 77.069 63.4402 78.1094 62.945C79.3373 62.3605 80.709 61.9269 81.9786 61.3832C84.5881 60.2653 87.1292 58.9875 89.4193 57.5684C89.4828 57.5296 89.5919 57.5808 89.5413 57.6342C87.7322 59.5547 85.6117 61.2135 83.0051 62.6223C81.9488 63.1937 80.839 63.6674 79.7212 64.1654L79.3998 64.3088C78.9505 64.5117 78.3911 64.7832 78.1878 65.1288C77.9844 65.4758 78.4189 65.7383 78.6539 66.0264C79.3978 66.94 79.0388 67.7925 78.157 68.5676L78.1154 68.6036C77.2386 69.3578 76.5741 70.0587 76.2567 71.0221C75.5743 73.0923 76.5245 75.2477 77.5203 77.1905L77.5599 77.2673C78.0985 78.3146 78.6708 79.3542 79.1389 80.418L79.2669 80.7123C79.6914 81.691 80.0385 82.6572 79.5625 83.6635C79.4008 84.0057 78.7323 84.0867 78.4546 83.7646C77.4746 82.6281 77.2297 81.2609 76.6157 80.0121C76.0166 78.7945 75.3293 77.5991 74.7511 76.3767C74.0062 74.8031 73.5083 73.109 73.7791 71.4578C73.7711 71.4481 73.7622 71.4391 73.7553 71.4287L73.5658 71.1392C73.0491 70.3559 72.5492 69.6716 71.6089 69.0469C70.6289 68.3951 69.5645 67.8182 68.793 67.0293C67.1172 65.3158 68.1536 63.4098 68.356 61.5363L68.3792 61.3063C68.416 60.9171 68.4361 60.3886 68.072 60.1192C67.6626 59.8165 66.7023 59.739 66.159 59.6046C64.7548 59.2576 63.3711 58.8538 62.0533 58.3683C60.7987 57.9063 59.5835 57.3966 58.4521 56.7982L57.8786 56.4976C56.9738 56.0211 56.0355 55.5002 55.4291 54.852C55.3591 54.7772 55.478 54.6567 55.6047 54.692C56.6171 54.9787 57.542 55.4351 58.4892 55.832C58.504 55.8078 58.521 55.7835 58.5405 55.7586C59.7124 54.2785 60.1944 52.6384 60.0071 50.954ZM92.3453 61.0972C92.7489 60.3256 94.5868 60.3852 94.5144 61.3022C94.4579 62.0072 94.0294 62.6431 93.6376 63.283L93.595 63.3516C93.1903 64.0186 92.7231 64.6447 92.1637 65.2555C91.0955 66.4233 89.8438 67.5072 88.5068 68.5309C87.2948 69.4583 85.7039 70.0255 83.871 69.9313C83.0984 69.8911 82.3188 69.754 81.6414 69.4846C80.838 69.1646 79.9651 68.2039 78.9396 68.4367C78.8404 68.4595 78.7472 68.3577 78.8335 68.3099C80.0167 67.6443 81.3607 68.6763 82.4943 68.9249C84.2033 69.2996 85.9558 68.8855 87.0548 67.9214C88.2033 66.915 89.2596 65.7882 90.2247 64.6925C90.7147 64.1363 91.161 63.5587 91.5478 62.9637C91.9366 62.3625 92.0259 61.7101 92.3453 61.0972ZM89.5919 56.3459C89.5423 56.2393 89.7318 56.1381 89.8667 56.1991C90.6443 56.5523 91.3187 57.0198 92.0358 57.4291C92.8322 57.8835 93.6346 58.3281 94.4489 58.7666C95.6362 59.4058 94.2595 60.5819 93.2141 59.8837C91.7839 58.9293 90.2178 57.6806 89.5919 56.3459ZM85.3201 52.6093C85.6365 51.7581 87.5061 52.1093 87.2333 52.9501L87.2244 52.9757C86.7086 54.3644 87.4436 55.778 89.0127 56.6784L89.0702 56.7116C90.062 57.2657 88.6566 58.2353 87.6737 57.6861C85.5284 56.4872 84.6357 54.4516 85.3201 52.6093Z" fill="black"/>
<path fill-rule="evenodd" clip-rule="evenodd" d="M76.9558 8.51998C101.866 9.07163 103.368 17.3482 103.368 31.2283C103.368 45.1081 90.4458 53.855 85.6879 55.3822C80.9301 56.9094 68.4005 63.469 57.0938 60.4465C45.7869 57.4233 49.0613 44.6512 49.0613 39.1635C49.0613 33.6758 52.0453 7.96832 76.9558 8.51998Z" fill="#EDB98A"/>
<path fill-rule="evenodd" clip-rule="evenodd" d="M52.8788 30.5481C58.0294 15.8572 67.4319 8.68961 81.0868 9.04533C101.568 9.57884 101.352 24.1815 100.068 22.85C99.2275 21.9801 93.3499 18.9413 82.4337 13.7336L81.7593 13.412L52.8788 30.5481Z" fill="#DBC69D"/>
<path fill-rule="evenodd" clip-rule="evenodd" d="M87.0607 50.8239C82.4864 52.6102 77.2485 52.6794 72.328 51.5553C69.3767 50.8828 66.6708 49.8432 64.1385 48.6C61.9356 47.5175 59.9695 46.3165 58.0215 45.0421C56.4177 42.5683 54.9897 40.0989 54.3209 37.4073C53.7217 34.9912 53.6423 32.4825 54.3373 30.071C59.4781 27.1131 64.5872 24.1309 69.6895 21.1396C72.2883 19.616 74.8929 18.1006 77.5292 16.6095C78.8681 15.8523 80.1942 15.0836 81.5282 14.323C81.7484 14.198 81.9666 14.0729 82.1868 13.9479C84.9402 15.358 87.8929 16.5667 90.6274 17.9998C92.0586 18.7511 93.4511 19.5511 94.7762 20.3927C95.4715 20.8339 96.1499 21.2888 96.8124 21.7554C97.4185 22.1815 98.0026 22.7927 98.8616 22.9537C98.9786 22.9756 99.0897 22.9802 99.1938 22.9698C100.342 30.0038 101.159 37.5995 96.2382 43.9875C94.0918 46.7743 91.0479 49.2656 87.0607 50.8239ZM57.3017 53.4094C56.6718 53.0056 57.6106 52.3518 58.2378 52.7542C62.1778 55.2788 67.3286 56.6169 72.5313 57.2361C73.3704 57.3365 73.0133 58.2286 72.1792 58.1288C66.7474 57.4826 61.4085 56.0406 57.3017 53.4094ZM52.5739 57.2825C51.8219 56.9999 52.4913 56.2006 53.2421 56.4825C56.3117 57.6343 59.6786 58.232 63.0936 58.6365C63.9335 58.7355 63.5752 59.6276 62.7417 59.5293C59.2106 59.1116 55.7458 58.4723 52.5739 57.2825ZM65.0668 18.2651C67.6139 16.6663 70.3513 15.145 73.2424 13.8612C76.1684 12.5622 79.365 11.7854 82.8186 11.7669C82.5766 11.9024 82.3475 12.0529 82.1134 12.1928C81.4618 12.5831 80.8111 12.9756 80.1605 13.3668C78.8602 14.1506 77.5559 14.9331 76.2715 15.7297C73.7423 17.2995 71.2052 18.8612 68.6814 20.4345C63.8305 23.4584 59.084 26.5482 54.4398 29.7273C54.4648 29.6497 54.4913 29.5721 54.5176 29.4947C56.0551 25.0028 60.2374 21.297 65.0668 18.2651ZM85.0334 11.9627C85.0503 11.9279 85.0612 11.8942 85.0681 11.8619C91.6965 12.4662 97.233 15.8778 99.0629 20.3697C98.9042 20.5249 98.816 20.709 98.8497 20.9045C98.8665 21.003 98.8824 21.1026 98.8993 21.2009C98.6721 21.0436 98.4391 20.8965 98.2407 20.7564C97.5801 20.2887 96.9037 19.8336 96.2084 19.3903C94.7861 18.4839 93.3103 17.6365 91.7541 16.8458C89.0483 15.4704 86.1194 14.2062 82.893 13.5464C83.1053 13.4248 83.3175 13.3033 83.5308 13.1828C84.1675 12.8204 84.7587 12.5218 85.0334 11.9627ZM96.9166 7.15932C92.8471 4.04857 87.2115 1.77025 81.2763 0.978403C75.609 0.22125 69.7423 0.720271 64.3884 2.19163C53.1853 5.27108 44.3458 12.0425 40.2065 19.8892C37.7935 24.4609 37.0024 29.4725 37.7274 34.3117C38.4489 39.1287 40.5226 44.1034 44.2961 48.2017C44.642 48.5771 45.021 48.9366 45.4182 49.285C45.2411 50.7 44.5659 52.0866 43.5034 53.2931C43.4463 53.3575 43.386 53.4212 43.3265 53.4849C42.2384 54.0549 41.1098 54.5896 40.0081 55.1416C39.0533 55.6202 38.1083 56.1106 37.2104 56.6404C36.3629 57.1405 35.3786 57.698 34.8048 58.3733C34.3347 58.926 34.1426 59.6782 34.7845 60.2052C35.5579 60.841 36.8683 60.6166 37.916 60.6166C38.0056 60.6166 38.0952 60.618 38.1848 60.6187C38.4994 60.7572 38.8234 60.8819 39.1373 60.9983C42.3101 62.175 45.4944 63.3386 48.682 64.4959C55.0308 66.8037 61.3531 69.2035 67.8324 71.3277C70.8348 72.3126 74.0488 73.1742 77.4121 73.1708C80.5662 73.1673 83.4177 72.2905 85.8804 70.9586C88.6873 69.4404 91.035 67.5129 93.3113 65.6235C94.2218 64.8678 95.1144 64.1025 95.9892 63.3268C97.6714 62.9341 99.3397 62.8198 100.838 63.5768C102.042 64.1849 103.627 63.358 103.656 62.4458C103.666 62.1217 103.646 61.8024 103.596 61.4872C103.295 59.5424 101.934 57.7825 100.402 56.15C99.5648 55.258 98.6821 54.3811 97.7954 53.5126C97.5871 53.3083 97.3818 53.1033 97.1824 52.8948C100.746 49.2247 103.573 45.1557 105.31 40.9035C107.136 36.4291 107.757 31.7891 107.35 27.1525C106.724 20.0466 103.937 12.5263 96.9166 7.15932Z" fill="black"/>
<path fill-rule="evenodd" clip-rule="evenodd" d="M84.5602 45.7694C83.4454 45.4515 82.4506 44.9223 81.7236 44.2456C81.4706 44.0105 81.4052 43.7621 81.4577 43.5349C81.5182 43.2795 81.7345 43.048 82.029 42.8928C82.3256 42.737 82.6965 42.6602 83.0546 42.6994C83.365 42.7334 83.6755 42.8524 83.9205 43.099L83.9711 43.1483C84.4035 43.5566 84.9669 43.8916 85.6096 44.1076C86.2285 44.3157 86.9198 44.4129 87.6359 44.3563C89.0007 44.2488 89.9399 43.7339 90.9397 43.0347C91.0637 42.9464 91.1877 42.8554 91.3116 42.7629C91.391 42.679 91.5001 42.6251 91.6211 42.5969C91.755 42.5655 91.9077 42.5672 92.0466 42.6012C92.1815 42.6339 92.3015 42.696 92.3818 42.7786C92.4592 42.8571 92.5028 42.9541 92.488 43.0657C92.3967 43.7903 91.8542 44.437 91.0835 44.9445C90.2266 45.509 89.0919 45.8989 88.0237 46.036C86.8464 46.1863 85.6463 46.0783 84.5602 45.7694ZM88.5791 34.5906C89.8318 35.122 91.7401 36.3611 90.3922 37.6785C88.8063 38.84 86.5231 37.5082 85.3973 36.9059C84.3549 36.4391 83.1826 37.6396 84.1506 38.1847C92.2807 42.3866 95.5805 34.7296 89.2119 33.9659C88.5117 33.8817 88.2508 34.4262 88.5791 34.5906ZM74.0081 29.7029C74.1469 28.5039 76.7624 28.2317 77.0232 29.4181C77.2553 30.4808 76.9816 31.4571 76.2952 32.4139C75.6406 33.328 73.9932 32.9016 73.8692 32.0692C73.7016 30.9534 73.9218 30.4487 74.0081 29.7029ZM93.9212 29.1719C94.2862 28.8386 94.8128 28.6109 95.4436 28.7395C97.4144 29.1417 96.8342 31.095 96.1419 32.0458C95.765 32.5622 94.55 32.6931 94.0005 32.2384C93.1049 31.4971 92.6754 30.0165 93.814 29.2862C93.8448 29.2485 93.8795 29.2104 93.9212 29.1719ZM76.2675 24.4566L76.5789 24.4185C77.543 24.3023 78.7401 24.1905 79.4215 24.7311C79.7825 25.0177 79.9075 25.5505 79.4215 25.8249C78.5675 26.3076 77.6223 26.1205 76.5987 26.1614C75.7547 26.1952 74.9434 26.2927 74.131 26.4549C72.3477 26.8106 70.8947 27.4601 69.3714 28.1732C69.1716 28.2668 68.9675 28.0884 69.0629 27.9579C69.9421 26.7559 71.6455 25.7685 73.3525 25.1666C74.263 24.8453 75.2598 24.5789 76.2675 24.4566ZM92.124 23.9182L92.362 23.9522C94.9557 24.3306 98.3249 25.0866 99.5538 26.8647C99.6004 27.1161 99.5508 27.17 99.5102 27.2052L99.4973 27.2169C99.4645 27.247 99.4378 27.2884 99.2821 27.3227C99.2384 27.3154 99.1948 27.3078 99.1501 27.2997C98.5878 27.1968 98.1414 27.0549 97.711 26.9077L97.2428 26.7469C96.7003 26.5612 96.1538 26.3823 95.5736 26.2503C94.3358 25.9685 93.0632 25.77 91.7699 25.664C91.4902 25.641 91.2204 25.575 91.0072 25.4619C90.8058 25.3546 90.6511 25.2059 90.5807 25.0083C90.4894 24.7526 90.5152 24.5589 90.7126 24.3282C90.8604 24.1549 91.0716 24.0348 91.3146 23.9659C91.5616 23.8956 91.8443 23.879 92.124 23.9182Z" fill="black"/>
<path fill-rule="evenodd" clip-rule="evenodd" d="M103.423 35.2958C101.41 36.7482 98.0483 37.165 95.3693 36.3861C88.4899 34.3799 91.8572 28.1226 97.1625 26.4422C97.8251 26.3269 98.7098 26.0533 99.5172 25.9913C99.5906 25.9663 99.7493 26.0387 99.9417 25.9702C105.792 26.4261 107.124 32.7647 103.423 35.2958ZM81.2356 35.6675C78.9772 37.7584 74.7778 38.4034 71.348 37.4314C64.5705 35.5684 66.9742 30.0198 71.6108 27.8445C81.4062 25.2755 85.4509 31.8123 81.2356 35.6675ZM66.5443 31.0347C66.5381 31.0326 66.5318 31.0315 66.5253 31.0294C66.5611 31.0185 66.5969 31.0075 66.6326 30.9962C66.621 31.0174 66.6084 31.0383 66.5971 31.0595C66.5796 31.0511 66.5641 31.0412 66.5443 31.0347ZM108.086 28.7746C107.532 28.7753 106.734 28.8388 106.277 29.1065C105.147 26.4493 100.981 23.9901 97.3569 25.7833C94.5034 26.4239 92.3859 27.8445 91.1828 29.7331C89.0126 28.8322 85.6007 29.2169 83.7192 30.4083C82.4873 27.566 79.4543 26.5708 75.844 26.4239C71.9044 25.9734 67.9774 28.6443 66.752 30.7869C65.7332 30.706 64.2109 30.4797 63.2523 30.9186C57.0316 29.7799 46.1559 29.152 44.8912 29.7847C43.99 30.0261 43.4954 31.511 44.7542 31.5911C45.8512 31.4824 44.6261 30.5031 45.7319 30.3962C51.6236 30.1413 57.343 30.9695 63.1722 31.317C63.6927 31.8057 65.3743 31.9692 66.2714 31.7728C64.8584 35.4075 67.9085 37.8803 72.4787 38.621C79.5555 39.7556 85.7118 35.337 83.861 30.741C86.0054 29.9966 88.4711 30.0285 90.8059 30.4207C86.904 40.4451 110.034 39.9953 106.42 29.4501C108.825 30.2847 109.347 28.943 108.086 28.7746Z" fill="black"/>
</svg>
