<svg width="131" height="131" viewBox="0 0 131 131" fill="none" xmlns="http://www.w3.org/2000/svg">
<path fill-rule="evenodd" clip-rule="evenodd" d="M127.25 71.9228C125.396 72.0875 123.543 72.2515 121.69 72.4156C112.813 73.0275 103.94 74.3061 95.1316 75.0737C94.9127 74.7513 94.4835 74.8045 94.2228 75.0282C93.3434 74.9588 92.3589 74.3524 91.5623 74.9833C91.5367 74.9798 91.5104 74.9763 91.4849 74.9742C90.0672 72.5179 89.0873 69.8976 88.136 67.2745C87.5289 65.6616 86.7122 64.1005 85.2032 63.0175C82.6278 61.4038 76.7258 58.1309 73.7018 58.2683C73.6515 57.7797 73.3986 57.2757 72.9848 56.9497C73.8982 55.5442 70.2454 54.6266 69.9879 54.79C70.1526 50.0927 67.7055 46.0136 62.3086 45.0778C57.4732 44.1686 50.5968 44.0158 47.9964 48.5771C47.7106 48.5484 44.7888 48.5344 44.5061 48.5631C44.0666 48.0605 39.2395 52.8223 41.2179 54.4801C23.5305 61.5433 13.4734 60.7007 8.5778 80.5575C7.91591 82.4229 7.86773 84.4641 7.16887 86.2881C4.68249 91.5287 2.66574 97.1099 2.16387 102.812C0.951696 103.093 0.812249 105.023 2.21638 105.302C2.75267 105.408 3.20117 105.554 3.59229 105.831C3.28656 110.504 4.53864 121.18 5.32752 121.147C6.93615 125.768 14.1114 127.073 19.1912 125.449C18.3156 126.936 19.1912 127.871 19.1912 128.666C37.4699 129.29 57.4554 128.931 75.7289 129.786C78.0662 129.757 80.5249 130.305 82.8304 129.989C84.2365 129.685 84.2388 127.689 82.8126 127.442L89.0448 126.221C88.9056 126.174 91.6133 124.547 93.6605 121.508C95.5655 118.109 94.2685 114.007 95.1316 110.309C101.874 109.811 108.727 109.599 115.396 108.568C116.305 111.024 120.241 108.087 121.492 106.905C121.49 106.903 121.489 106.901 121.487 106.9C122.093 106.75 122.579 106.237 122.595 105.631C123.019 105.084 123.108 104.312 122.701 103.783C124.567 94.0613 127.412 84.1354 128.441 74.323C128.805 74.2501 129.146 74.1064 129.437 73.8841L129.413 73.8631C129.905 73.3682 130.001 72.5137 129.181 72.0938C128.52 71.7538 127.968 71.859 127.25 71.9228Z" fill="#EDB98A"/>
<path fill-rule="evenodd" clip-rule="evenodd" d="M56.7609 108.307L58.1886 109.127L69.8703 112.525L77.0089 113.345L82.8497 112.525V121.547L84.0176 129.983C83.4986 130.843 78.5665 130.843 69.2214 129.983C63.2638 129.436 41.4915 129.17 36.5344 129.053L36.2536 129.046C30.4284 128.894 24.6742 128.894 18.9909 129.046V125.883L35.2152 118.617L49.7522 111.236L56.7609 108.307ZM48.4842 47.8389L49.557 48.5623L47.2146 52.0364L58.6256 60.3683V67.0235L62.2374 70.1078L64.3025 67.0235L67.212 63.5304L69.2802 57.8686L68.5756 54.1379L69.9917 54.0181C69.9987 54.2725 69.9971 54.5298 69.9886 54.7891C70.2461 54.6258 73.8982 55.5434 72.9848 56.9496C73.3994 57.2748 73.6523 57.7789 73.7018 58.2674C76.7266 58.1301 82.6277 61.403 85.204 63.0166C86.7129 64.0996 87.5297 65.6607 88.1368 67.2737L88.2799 67.6677L88.4268 68.0714L88.5761 68.4745C89.3974 70.6938 90.2838 72.8921 91.4849 74.9734C91.5112 74.9755 91.5375 74.9797 91.563 74.9825C92.3588 74.3516 93.3442 74.9579 94.2235 75.028C94.478 74.8093 94.8933 74.7532 95.1168 75.0512L95.1323 75.0729L84.1815 77.0202L76.9571 99.8969L70.6653 95.2873L67.2886 95.7401L58.3704 98.6443L47.9983 101.076L24.3199 106.969H21.3045L3.75825 103.144L2.177 102.673C2.69913 97.0187 4.70328 91.4858 7.16947 86.2873C7.86833 84.4633 7.91651 82.422 8.57832 80.5567C13.474 60.6999 23.5311 61.5432 41.2185 54.4793C39.2401 52.8215 44.0671 48.0597 44.5066 48.5623L44.5344 48.5602L44.5942 48.5574L44.6714 48.5546C45.3615 48.5363 47.7405 48.5504 47.997 48.5763C48.1457 48.3155 48.3086 48.0702 48.4842 47.8389Z" fill="#FF734F"/>
<path fill-rule="evenodd" clip-rule="evenodd" d="M129.001 72.6167L128.675 74.2577C128.597 74.2808 128.518 74.2998 128.439 74.3159C128.336 75.2945 128.215 76.2737 128.08 77.2537L126.057 87.4285C125.709 89.2287 125.378 91.033 125.049 92.8374L124.613 94.7756L124.343 95.9806C123.761 98.589 123.195 101.19 122.699 103.776C122.773 103.873 122.832 103.979 122.874 104.09L122.836 104.235L122.81 104.333L122.782 104.429C122.391 105.788 121.709 107.106 120.103 107.506C118.892 107.808 117.562 107.835 116.311 107.954L116.172 107.967L94.2816 110.19C91.6366 110.458 88.9923 110.735 86.3487 111.015L84.0571 111.257C80.8629 111.591 77.6501 111.854 74.5031 112.458C74.3871 112.48 74.2912 112.522 74.2131 112.577C74.8473 110.411 75.4536 108.249 76.0035 106.061C76.6223 103.599 77.2101 101.132 77.8713 98.6787C79.2055 93.7367 80.6997 88.827 82.3363 83.9594C82.6796 82.9373 83.0316 81.9181 83.3904 80.901L83.6425 80.1895L83.8359 79.6231C84.136 78.7587 84.5072 77.8713 85.3874 77.3946C86.4168 76.8366 87.8213 76.7441 88.9892 76.5513L89.7804 76.4174C90.9637 76.2184 92.1478 76.0263 93.3342 75.8419C99.0134 74.9601 104.725 74.2528 110.458 73.7215C116.423 73.1684 122.408 72.8095 128.402 72.6335L129.001 72.6167ZM74.6663 106.542L74.7228 106.547L73.9045 112.447C73.7738 112.365 73.6083 112.314 73.4056 112.315C70.7234 112.322 68.1526 111.548 65.6653 110.697L65.2863 110.567L64.2306 110.201C63.1579 109.829 62.079 109.466 60.9792 109.165L60.5352 109.044L60.3094 108.984C59.4772 108.764 58.6017 108.565 57.7363 108.516L57.6179 108.51L57.8701 108.391C57.9072 108.373 57.9397 108.354 57.9683 108.333C58.4447 108.364 58.9219 108.356 59.4246 108.274C60.3697 108.12 61.2885 107.824 62.1323 107.41L62.5098 107.226L62.6637 107.151L62.7658 107.104L62.8671 107.058C63.5918 106.732 64.2848 106.528 65.2005 106.701C66.2392 106.898 67.1495 107.404 68.0861 107.831L68.2524 107.906L68.3637 107.955L68.4782 108.003L68.5934 108.05C69.8595 108.565 71.875 109.12 72.3607 107.566C72.5556 106.941 72.4033 106.357 72.0645 105.843C72.6956 105.794 73.8225 106.466 74.6663 106.542ZM106.191 87.1005L106.206 87.1713C106.386 88.0419 105.936 88.874 105.256 89.481C104.699 89.9787 103.713 90.2556 103.433 90.9713C103.274 91.3793 103.444 91.7656 103.77 92.0347L103.695 92.0684L103.621 92.102L103.549 92.1364L103.479 92.1714L103.411 92.2058C102.301 92.782 101.396 93.7178 102.398 94.8492C103.534 96.132 105.908 96.174 107.58 96.0731L107.693 96.0661C109.314 95.9567 111.235 95.4647 112.114 94.1132C112.517 93.4935 112.473 92.7434 111.911 92.2128C111.572 91.8924 110.967 91.5637 110.412 91.5251C110.436 91.2426 110.399 90.9699 110.289 90.74C110.052 90.243 109.419 89.9079 108.808 89.896C108.857 88.8403 107.921 87.7987 107.232 86.9547L107.161 86.8678L107.092 86.7829C106.776 86.3855 106.099 86.6077 106.191 87.1005Z" fill="white"/>
<path fill-rule="evenodd" clip-rule="evenodd" d="M48.3336 47.5174C48.8842 46.2675 50.7459 46.7533 50.5383 48.0662C50.4141 48.852 49.9372 49.6827 49.5087 50.3718C49.1598 50.9326 48.7619 51.48 48.2223 51.9006C49.1828 52.7096 50.1797 53.4891 51.202 54.2286C52.3174 55.0362 53.4904 55.7806 54.7028 56.4648C55.7659 57.0648 56.8769 57.5962 57.8793 58.2803C58.8112 58.9168 59.6597 59.6823 60.092 60.6812C60.5522 61.7453 60.3519 62.8437 60.0131 63.9071L59.9745 64.0277C59.628 65.0806 59.0286 66.3508 59.86 67.3427C60.2831 67.8481 60.8979 68.2063 61.4285 68.6101C61.901 68.969 62.3434 69.3594 62.7503 69.7786C63.6358 70.6927 64.3566 71.7217 64.8106 72.8678L64.8516 72.9716C65.2414 73.9866 65.526 75.2295 64.9993 76.2256C64.8485 76.5109 64.3613 76.4183 64.277 76.1401C64.0852 75.5106 64.0952 74.8509 63.9351 74.2116C63.7681 73.5478 63.4904 72.9169 63.1277 72.3204C62.4254 71.1659 61.4749 70.1803 60.3519 69.3468L60.0155 69.1C59.1392 68.4509 58.3348 67.7619 58.1569 66.6879C57.9667 65.5383 58.4764 64.4441 58.8043 63.3562C59.0332 62.5977 59.1075 61.8715 58.8607 61.1859C58.5591 61.631 58.1469 62.053 57.8213 62.4295C57.1732 63.1795 56.5181 63.9247 55.8653 64.6712C55.1958 65.4374 54.5428 66.2155 53.9209 67.0132C53.6428 67.37 53.3676 67.7296 53.0934 68.0892C52.8871 68.3591 52.5995 68.629 52.3747 68.9045C52.4293 69.0524 52.4252 69.222 52.3262 69.3426C51.1339 70.7964 49.4379 67.7626 48.9956 66.9964C48.0948 65.4353 47.4244 63.7768 46.5207 62.2157C45.5842 60.5978 44.5178 59.0234 43.3293 57.5464C42.6104 56.6526 41.8046 55.8135 41.1469 54.8917C39.5976 56.1598 37.5587 57.0101 35.6861 57.7812C33.6286 58.628 31.4909 59.3199 29.3813 60.0552L28.7582 60.2732C25.1233 61.5539 21.3996 62.9608 18.3784 65.2355C14.8281 67.9084 12.7278 71.6341 11.1642 75.4923C9.36414 79.9331 7.87501 84.4944 6.48688 89.0529C5.7765 91.3851 5.10247 93.7278 4.46881 96.0782C3.91049 98.1489 3.4476 100.24 2.80125 102.29C4.11212 102.248 5.60728 102.706 6.72649 102.838C11.8272 103.441 16.8594 104.402 21.6752 106.065C22.27 106.271 22.4421 106.807 22.3126 107.241C22.6557 107.154 22.9984 107.065 23.3414 106.979C22.9656 106.458 23.145 105.53 23.1745 104.953L23.1764 104.913C23.2067 104.146 23.2991 103.377 23.3588 102.611C23.4728 101.15 23.6211 99.6995 23.8183 98.2471L23.8687 97.8833C24.0922 96.3032 24.2574 94.7134 24.5013 93.1355L24.5301 92.9553C24.4132 92.5515 24.277 92.1527 24.1341 91.7559C23.7533 90.6981 23.2158 89.7027 22.7448 88.6786C22.6892 88.558 22.8796 88.4893 22.9684 88.5615C23.7661 89.2092 24.3998 90.0308 24.9088 90.8909C24.9177 90.8503 24.9255 90.8096 24.9347 90.7689L24.9928 90.511C25.136 89.8815 25.3103 89.2191 25.738 88.7087C25.7836 88.6541 25.8736 88.6428 25.9168 88.7087C26.3261 89.334 26.3719 90.1261 26.4349 90.8376C26.5061 91.6424 26.5151 92.4576 26.5025 93.2645C26.478 94.8424 26.3547 96.4238 26.2567 97.9989C26.1604 99.5467 25.9714 101.074 25.7277 102.607L25.6814 102.895C25.5623 103.624 25.4648 104.362 25.3077 105.087L25.2633 105.284C25.1794 105.643 25.1277 106.149 24.9605 106.571C29.2616 105.488 33.5694 104.429 37.8854 103.39C41.0047 102.638 44.1273 101.898 47.2486 101.153C47.4133 100.885 47.6184 100.635 47.8743 100.41C48.7176 99.6736 49.8352 99.3448 50.8602 99.9119C50.9435 99.9582 50.9505 100.076 50.8602 100.121C50.6637 100.218 50.467 100.317 50.2737 100.421L52.148 99.9624C53.5488 99.6196 54.9665 99.1913 56.4005 98.9523C59.041 97.776 61.8817 96.9243 64.6637 96.0824L64.9916 95.9829C66.4162 95.5441 67.8896 95.0534 69.3614 94.8101C70.4388 94.6328 71.7033 94.8473 72.1364 95.8434C72.6848 96.17 73.2006 96.5535 73.6987 96.9306C74.0591 97.2033 74.4041 97.4928 74.7552 97.7753L74.8202 97.8265C75.1071 98.0508 75.3337 98.2015 75.4049 98.559C75.4412 98.7441 75.3105 98.9936 75.0584 98.9691C74.2857 98.8948 73.6577 98.0865 73.1341 97.6036C72.7296 97.2306 72.3213 96.8451 71.9523 96.435C71.7366 96.5409 71.4419 96.5219 71.3042 96.2878C70.5934 95.0723 68.6468 95.9142 67.5694 96.2023L66.0264 96.6152C65.2546 96.8213 64.4835 97.0287 63.7131 97.2397C61.5971 97.8202 59.4911 98.4693 57.3557 99.002C57.5467 99.192 57.5204 99.5292 57.1577 99.6575C55.4863 100.249 53.6525 100.555 51.916 100.962C50.8196 101.219 49.7239 101.477 48.6285 101.737C48.4408 102.011 48.3056 102.322 48.2488 102.684C48.0397 104.013 48.4429 105.548 48.8356 106.834L48.8948 107.026C49.2176 108.06 49.6925 109.328 50.6809 109.981C50.9222 110.14 51.2294 110.251 51.5391 110.276C53.4739 109.377 55.4086 108.478 57.3449 107.581C57.7029 107.415 58.0347 107.64 58.1152 107.907C58.7973 107.806 59.4787 107.647 60.099 107.457C61.1408 107.138 61.9552 106.528 62.932 106.107C64.823 105.291 66.7534 106.293 68.4457 107.054L68.8362 107.227C69.595 107.56 71.1743 108.198 71.5386 107.289C71.8912 106.409 70.7775 105.469 70.0582 105.073C69.2005 104.601 68.202 104.348 67.233 104.138C66.68 104.018 66.12 103.919 65.5562 103.848C64.9174 103.767 64.2569 103.779 63.642 103.592C63.3357 103.5 63.2885 103.061 63.642 102.989C64.5887 102.794 65.7194 103.006 66.7078 103.223L67.2245 103.338C68.2206 103.558 69.2261 103.835 70.1333 104.276C70.793 104.596 71.4891 105.082 71.9438 105.677C72.339 105.346 72.8302 105.357 73.3422 105.48L73.6206 105.55C74.0792 105.664 74.4512 105.743 74.8975 105.664C74.9578 105.37 75.0182 105.077 75.0831 104.784C75.7189 101.9 76.4173 99.0266 77.1868 96.1693C78.5155 91.24 80.0523 86.3653 81.7855 81.5398L81.9588 81.0575C82.3586 79.9541 82.6804 78.7519 83.3246 77.7376C83.9341 76.7793 84.9101 76.227 86.0703 75.9347C87.3866 75.6024 88.7702 75.4293 90.1129 75.2049C90.4122 75.1552 90.7131 75.1075 91.0124 75.0584C90.7595 74.6456 90.57 74.1766 90.3998 73.817L90.3697 73.7546C90.0038 73.001 89.6751 72.2342 89.3573 71.4638L89.1198 70.8841C88.5467 69.4884 87.9551 68.1159 87.1492 66.8106C86.3007 65.4367 85.1754 64.3137 83.7724 63.3842C80.9123 61.4887 77.4645 60.5221 74.6902 58.4962C74.5765 58.4135 74.7219 58.2719 74.8372 58.3245C76.7112 59.1741 78.7329 59.7517 80.6819 60.4436L81.0663 60.5803C82.6061 61.1312 84.17 61.7313 85.5033 62.6236C86.9891 63.619 88.16 64.8542 89.0394 66.3241C89.9064 67.7724 90.4609 69.3938 91.0727 70.9408L91.2367 71.353C91.4834 71.9713 91.7378 72.5874 92.0302 73.1889C92.2622 73.6663 92.6945 74.2116 92.891 74.757C93.4293 74.6729 93.9668 74.5888 94.5051 74.5074C106.17 72.7494 117.964 71.7161 129.785 71.414C130.248 71.4021 130.487 71.8009 130.419 72.1648C129.284 78.2206 128.276 84.2967 127.17 90.3568C126.687 93.0016 126.195 95.6443 125.691 98.2863C125.436 99.6245 125.14 100.958 124.899 102.298C124.703 103.38 124.562 104.471 124.227 105.528C123.926 106.477 123.465 107.391 122.707 108.114C121.89 108.894 120.75 109.271 119.603 109.45C116.691 109.902 113.703 110.087 110.766 110.388L95.1331 111.993C95.3613 113.868 95.3783 115.714 95.2739 117.61L95.2136 118.645C95.1648 119.478 95.1068 120.312 94.9738 121.136C94.8083 122.17 94.2839 123.045 93.5128 123.817C92.8044 124.526 91.9436 125.131 91.106 125.711C90.2366 126.313 89.3387 126.894 88.317 127.267L88.184 127.314C87.2876 127.63 85.6062 128.12 84.3811 127.94C84.5412 128.665 84.8506 129.444 84.576 130.161C84.4484 130.494 83.9666 130.659 83.6711 130.376C83.0856 129.815 83.04 129.074 82.9016 128.341C82.7569 127.579 82.6332 126.814 82.5226 126.047C82.3091 124.566 82.1429 123.07 82.0918 121.575C82.04 120.039 82.0601 118.502 82.1514 116.969C82.1985 116.181 82.2565 115.394 82.3679 114.612C82.4151 114.278 82.463 113.944 82.518 113.611C82.5381 113.49 82.5605 113.369 82.5845 113.248L81.1815 113.391C79.0299 113.608 76.8774 113.804 74.7103 113.834C74.4543 113.838 74.2563 113.733 74.128 113.579C73.9903 113.781 73.7505 113.925 73.4079 113.925C70.3823 113.914 67.564 113.021 64.8122 111.968C63.4247 111.438 62.0588 110.863 60.6698 110.337C59.3727 109.846 57.9868 109.495 56.7215 108.942L53.3959 110.516C53.3715 110.594 53.3403 110.667 53.307 110.728C53.0905 111.128 52.6636 111.344 52.2276 111.507C51.8091 111.663 51.3758 111.712 50.9536 111.672C48.4316 112.865 45.9091 114.058 43.3849 115.247L40.8601 116.435C35.8298 118.799 30.8194 121.202 25.7574 123.511L25.3847 123.68C23.6363 124.472 21.7588 125.274 19.8185 125.873C19.784 126.316 19.8057 126.748 19.8468 127.217L19.8568 127.319C19.9146 127.874 20.0387 128.568 19.5459 128.963C19.2895 129.168 18.8317 129.169 18.6573 128.86C18.341 128.298 18.625 127.413 18.7252 126.803C18.7607 126.587 18.8041 126.364 18.8682 126.147C16.6438 126.745 14.352 127.035 12.0884 126.699C9.88449 126.373 8.17757 125.119 6.80151 123.586C5.34919 121.968 4.31722 120.084 3.76354 118.062C3.13336 115.763 3.09221 113.387 3.10699 111.032C3.12276 108.523 3.22555 106.002 3.56353 103.511C3.19322 103.432 2.78254 103.364 2.40836 103.387C2.22297 103.655 1.86349 103.768 1.53858 103.733C0.83214 104.436 2.62406 105.155 3.1967 105.335C3.39555 105.398 3.37428 105.689 3.14496 105.68L3.00049 105.674C2.11562 105.632 1.20145 105.495 0.681169 104.753C0.264299 104.158 0.389515 103.453 0.886512 102.968C1.21475 100.166 1.99946 97.4381 2.72987 94.705C3.44659 92.0223 4.2436 89.3572 5.08847 86.7046L5.46722 85.5178C6.79741 81.3596 8.18778 77.1677 10.0226 73.1749C10.9388 71.1813 11.9943 69.2241 13.425 67.4857C14.7587 65.865 16.3332 64.4784 18.1431 63.2938C21.5171 61.0857 25.4761 59.7517 29.366 58.4808L29.5402 58.4233C31.556 57.7651 33.5669 57.0992 35.5598 56.3862C37.3223 55.7554 39.0108 54.9555 40.7649 54.3155C40.708 54.2223 40.6529 54.1277 40.6 54.0323L40.5676 54.0569C40.562 54.0611 40.5563 54.0646 40.5504 54.0681C40.374 54.1788 40.1143 54.1242 39.9689 54.0008C39.5585 53.651 39.6975 53.2627 39.9714 52.9002L40.0071 52.854C40.3422 52.4299 40.6411 51.982 40.9505 51.5431L41.1441 51.2683C41.6633 50.5344 42.2089 49.7963 42.9011 49.1899C43.2217 48.9088 43.5727 48.6985 43.9445 48.5422C43.9127 48.4812 44.1915 48.3571 44.2706 48.4195C45.4487 48.0305 46.8041 48.1118 48.0886 48.2191M94.3767 112.071L92.7386 112.239C90.9366 112.425 89.1337 112.603 87.3309 112.781L83.4143 113.165C83.4043 113.367 83.3772 113.564 83.3726 113.716C83.3471 114.5 83.3277 115.285 83.3099 116.07C83.2736 117.643 83.313 119.218 83.4275 120.789C83.5389 122.311 83.6858 123.832 83.9132 125.344L83.9596 125.646L83.9867 125.804C84.1723 125.821 84.3548 125.9 84.5064 126.064C84.8382 126.421 86.037 126.074 86.5057 125.923C87.276 125.676 88.0015 125.258 88.6712 124.839C89.3248 124.43 89.9133 123.952 90.4787 123.45L90.9412 123.036C91.4022 122.623 91.8631 122.183 92.1447 121.664C92.5275 120.959 92.577 120.095 92.6891 119.327C92.8268 118.384 92.9915 117.44 93.1656 116.501M46.8257 102.166L46.6558 102.206C40.484 103.686 34.3213 105.21 28.1305 106.625C25.0668 107.326 21.9886 107.975 18.9212 108.662L18.4245 108.774C16.0047 109.326 13.5557 109.991 11.7026 111.576C11.6343 111.634 11.535 111.544 11.5993 111.482C13.5965 109.563 16.4369 108.751 19.1642 108.046C19.6683 107.916 20.173 107.789 20.6773 107.659C16.9683 106.465 13.2007 105.427 9.3462 104.686C8.35368 104.496 7.34963 104.355 6.3578 104.164C5.66614 104.031 4.99071 103.837 4.30632 103.678L3.76802 103.555L3.76091 105.091C3.75194 107.266 3.75619 109.44 3.87916 111.615L3.90244 112.018C4.04583 114.438 4.26974 116.909 5.22119 119.191C5.99437 121.045 7.22681 122.793 8.83845 124.144C9.65394 124.827 10.5308 125.359 11.6145 125.622C12.6208 125.865 13.6752 125.894 14.7096 125.829C19.6715 125.517 24.0884 123.083 28.3986 121.068C35.4487 117.774 42.4995 114.48 49.5567 111.198C49.3659 111.08 49.1863 110.944 49.0228 110.792C48.0765 109.909 47.5773 108.702 47.2495 107.532C46.9004 106.287 46.6918 104.952 46.6675 103.667M55.805 112.469C55.8676 112.439 55.9396 112.477 55.9427 112.541C55.9643 113.027 55.6665 113.507 55.444 113.946L55.4204 113.993C55.1501 114.535 54.854 115.071 54.5478 115.598C53.9358 116.651 53.2998 117.694 52.6361 118.721C51.3012 120.789 49.818 122.768 48.0647 124.568C47.6687 124.975 47.0174 124.453 47.2715 124.015C48.4968 121.905 49.9252 119.913 51.3954 117.938C52.1315 116.949 52.8671 115.959 53.6104 114.975C53.9205 114.564 54.2346 114.155 54.5572 113.751L54.7517 113.51M129.004 72.6232C122.811 72.7914 116.624 73.1566 110.46 73.728C104.728 74.2593 99.0164 74.9666 93.3373 75.8484C92.1508 76.0328 90.966 76.2242 89.7826 76.4232L89.0726 76.5438C87.8893 76.7464 86.4438 76.8298 85.3904 77.4004C84.279 78.0026 83.9789 79.2601 83.6092 80.2969C83.1746 81.5166 82.7515 82.7391 82.3393 83.9652C80.7027 88.8328 79.2077 93.7425 77.8744 98.6852C77.2123 101.138 76.6253 103.605 76.0058 106.067C75.4567 108.254 74.8495 110.418 74.2161 112.583C74.2942 112.528 74.3901 112.487 74.5054 112.464C77.6524 111.86 80.8652 111.597 84.0594 111.263L84.3687 111.231C87.6728 110.88 90.9776 110.532 94.2839 110.196L116.175 107.974C117.466 107.843 118.849 107.825 120.106 107.512C122.241 106.98 122.742 104.824 123.101 103.108L123.111 103.056C124.192 97.8678 125.052 92.6357 126.06 87.435M74.725 106.553C73.875 106.502 72.7118 105.799 72.0676 105.85C72.4056 106.362 72.5587 106.948 72.363 107.572C71.8209 109.31 69.3653 108.411 68.1827 107.88C67.2128 107.444 66.2762 106.911 65.2027 106.707C63.9869 106.477 63.1625 106.913 62.1354 107.417C61.2916 107.83 60.372 108.126 59.4269 108.28C58.9249 108.362 58.447 108.371 57.9705 108.338C57.9419 108.36 57.9094 108.379 57.8731 108.397L57.621 108.516C58.7602 108.563 59.9211 108.881 60.9822 109.171C62.0812 109.473 63.1602 109.836 64.2337 110.207L65.2894 110.573C67.8935 111.473 70.5896 112.328 73.4079 112.321C73.6105 112.32 73.7768 112.371 73.9075 112.454M69.9701 101.108C70.8092 101.015 71.5842 101.114 72.2555 101.608C73.0645 102.203 73.6082 103.19 74.7714 103.254C75.1102 103.273 75.1891 103.704 74.8519 103.793C73.9864 104.025 73.2857 103.602 72.6956 103.053L72.2988 102.679C71.7157 102.134 71.1781 101.713 70.189 101.745C69.1294 101.78 68.0683 102.001 67.0156 102.114C65.8238 102.241 64.6312 102.349 63.4355 102.443C63.3798 102.447 63.3705 102.368 63.4223 102.357L64.7619 102.056M69.1595 98.0087L69.298 97.9961C70.5169 97.8896 71.6321 97.8854 72.7211 98.4777L72.9299 98.5913C73.9114 99.1303 74.9803 99.7647 75.5943 100.637C75.6949 100.78 75.5286 100.947 75.3608 100.912C74.1805 100.656 73.3182 99.8741 72.3259 99.2894C71.2122 98.6326 70.0613 98.7413 68.7922 98.8429C67.5624 98.9417 66.3335 99.0777 65.1161 99.2621C63.9722 99.4359 62.8253 99.71 61.6698 99.7976V99.7956C61.5375 99.7956 61.4625 99.6161 61.5971 99.5558C62.7696 99.0273 64.1277 98.777 65.4031 98.5352M27.4096 68.0794C27.4081 67.9925 27.5437 67.9602 27.5911 68.0352C28.3844 69.2949 28.7991 70.8399 29.2217 72.2278C29.6643 73.6817 30.0216 75.151 30.3426 76.63C30.9928 79.6268 31.3392 82.6052 31.3627 85.6587C31.3659 86.0948 30.5791 86.2111 30.5021 85.7646C29.9911 82.7938 29.5015 79.8202 28.9867 76.8508C28.7276 75.357 28.426 73.8696 28.1375 72.3807M35.2632 70.2742C35.2049 70.1003 35.4849 70.0422 35.5566 70.2013C37.1486 73.7294 37.6878 77.7271 36.6657 81.4493C36.5093 82.0185 35.5855 81.7718 35.7035 81.2096M55.7988 67.1394C55.7907 67.0097 55.9775 66.9887 56.0478 67.0784C56.8027 68.0381 57.1151 69.323 58.4392 69.8186C59.0997 70.0667 59.8438 70.0232 60.4269 70.4417C60.8175 70.7214 61.1168 71.1623 60.8237 71.5864C60.7293 71.7231 60.4648 71.7918 60.3364 71.6432C60.1493 71.4259 60.0503 71.1666 59.7958 71.0046C59.4377 70.7754 58.9536 70.7614 58.5429 70.6534C58.0108 70.5146 57.5421 70.2707 57.1585 69.909M68.4016 51.1359C68.4797 51.1001 68.554 51.1232 68.6035 51.1835C68.6746 51.2697 68.6661 51.3539 68.5787 51.4135C68.6955 51.628 68.8324 52.1649 68.8517 52.2427C68.9314 52.5596 69.0157 52.8743 69.1046 53.1891C69.2825 53.8241 69.4387 54.4634 69.6174 55.0985C69.8069 55.7715 70.0319 56.4374 70.2833 57.0935C70.2996 57.1363 70.3173 57.1798 70.3359 57.2239L70.3645 57.2898L70.3715 57.28C70.4225 57.2071 70.5285 57.2583 70.5161 57.3347C70.5045 57.4048 70.4883 57.4749 70.4751 57.545L70.5014 57.6074C70.6654 58.0062 70.7783 58.4261 70.4767 58.778C70.3645 58.9098 70.24 58.9876 70.0861 59.0107C69.8378 59.7482 69.5277 60.4709 69.1951 61.1656L69.0977 61.3689C68.6081 62.3825 68.086 63.3821 67.3072 64.245C66.4565 65.1871 65.2863 65.8306 64.5453 66.8625C64.2004 67.3427 63.9606 67.8481 63.7657 68.3899L63.6923 68.596C63.5546 68.9795 63.3953 69.351 62.9962 69.576C62.8694 69.6482 62.6791 69.6251 62.5762 69.5269C61.7587 68.7467 62.6141 67.2894 63.1076 66.5337C63.792 65.4829 64.7836 64.8107 65.7766 64.0179C66.847 63.1634 67.5292 62.0208 68.1897 60.8943C68.5942 60.2045 68.9847 59.4993 69.3954 58.8068C68.9662 58.464 68.8285 57.7833 68.6831 57.3101L68.67 57.2681C68.4294 56.5103 68.2384 55.7329 68.1177 54.952C68.0017 54.2013 67.953 53.4617 67.9839 52.7068L67.9925 52.5147M69.9987 54.7088C69.9036 54.591 70.0606 54.4578 70.1905 54.4824C70.9825 54.6303 71.7559 55.0628 72.4667 55.4126L72.5425 55.4497C73.1094 55.7259 73.6801 56.0638 73.9779 56.6C74.302 57.1833 74.2749 57.8541 74.2308 58.4878L74.2269 58.5474C74.1728 59.3066 74.1635 60.0959 73.9856 60.8417C73.8944 61.2238 73.5115 61.331 73.1844 61.2413C72.7946 62.3516 71.7002 63.1697 70.9005 64.0466C69.8811 65.164 70.0729 66.6725 70.1797 68.0177C70.2222 68.5631 69.472 68.718 69.0853 68.4271L68.1943 67.7591C68.0458 67.6476 67.8973 67.5354 67.7496 67.4233C67.6228 67.3273 67.4975 67.2305 67.3729 67.1324L67.1873 66.9845C67.1046 66.9179 66.7411 66.5513 66.6351 66.5358C66.3776 66.4987 65.7658 67.1113 65.5562 67.3034L65.5299 67.3272C65.1362 67.6763 64.7797 68.0514 64.4479 68.4495C64.3876 68.5231 64.2677 68.4621 64.3118 68.3773C64.6088 67.8032 64.9545 67.2536 65.3644 66.7391L65.4471 66.6368C65.7202 66.3052 66.0868 65.7185 66.5686 65.6203C67.1572 65.5012 67.7442 66.0332 68.1727 66.329L68.1997 66.348C68.4031 66.4854 68.6042 66.6263 68.8053 66.7672C68.7844 65.7655 68.9244 64.7532 69.4975 63.8896C69.9012 63.2805 70.5068 62.8297 71.025 62.3061C71.602 61.7236 71.9028 61.0072 72.4249 60.4008C72.4922 60.3223 72.585 60.2802 72.6848 60.2669C72.7049 59.779 72.7845 59.2869 72.8464 58.804L72.8642 58.6595C72.9261 58.1352 73.073 57.4945 72.7884 57.0038C72.52 56.5398 71.9036 56.2124 71.4473 55.8977L71.0745 55.6369M44.31 49.164C44.0717 49.2888 43.849 49.4437 43.647 49.6372C43.0108 50.2463 42.556 51.0041 42.1135 51.7331C41.8751 52.1264 41.6454 52.5231 41.4052 52.915C41.3007 53.0853 41.1932 53.2542 41.0845 53.4225C41.0343 53.5003 40.885 53.6545 40.811 53.7491C40.8932 53.8536 40.9782 53.9559 41.0649 54.0569C41.098 54.0954 43.3799 56.3393 44.1753 57.2176C45.3934 58.5628 46.482 59.9837 47.4128 61.5049C48.3242 62.9944 49.0181 64.571 49.8625 66.0893C50.285 66.8492 50.757 67.6041 51.3585 68.2617C51.3818 68.2876 51.4063 68.3114 51.4301 68.3374C51.6597 67.7773 52.248 67.1772 52.5369 66.8331L52.564 66.8008C53.2193 66.0031 53.9114 65.2299 54.6185 64.4693C55.2644 63.7754 55.9264 63.0961 56.6047 62.4281L56.8599 62.1778C57.3325 61.7173 57.9327 61.0275 58.6249 60.698C58.5506 60.5788 58.4648 60.4611 58.3665 60.3447C57.7176 59.5799 56.8019 59.0248 55.8978 58.5243L55.3112 58.2025C53.1011 56.9863 50.9254 55.7147 49.0067 54.1347C47.9916 53.2984 46.9905 52.4229 46.1371 51.4478L45.8354 51.1036M47.9978 48.5625C46.9628 48.6411 45.8452 48.6221 44.8888 48.9263C45.739 49.6526 46.5473 50.4356 47.3775 51.1737C47.4514 50.6746 47.6025 50.1818 47.7305 49.6953" fill="black"/>
<path fill-rule="evenodd" clip-rule="evenodd" d="M78.2178 18.1019C78.3585 16.9156 76.8241 13.7506 76.8604 14.3927C74.3994 10.9597 69.5965 9.60962 65.4525 8.47634C56.6557 5.84918 49.7859 9.02205 43.6049 14.6454C39.9558 17.7289 36.4836 21.1734 34.6518 25.442C31.0481 33.5851 36.4498 42.8702 44.6644 46.7607C45.3272 47.0853 46.0496 47.393 46.6808 47.7849C50.0767 49.5598 54.0642 50.1738 57.8483 50.9463C64.9274 52.41 73.8178 51.7125 77.9896 45.6153C80.8195 41.2885 80.0678 36.0428 79.8466 31.2407C79.5132 27.0333 78.9293 22.2786 78.2178 18.1019Z" fill="#EDB98A"/>
<path fill-rule="evenodd" clip-rule="evenodd" d="M40.3786 6.09435C44.965 2.21579 51.7437 0.335958 57.9412 0.66472C61.2986 0.842841 64.5337 1.60369 67.5671 2.91096C68.5161 3.31978 69.4403 3.79834 70.2926 4.36179C70.868 4.60454 71.4303 4.86727 71.9748 5.15293C74.7026 6.58238 76.8109 8.74759 78.1605 11.3159C78.8048 12.5418 79.3137 13.8345 79.6014 15.1664L79.6478 15.3856C79.7948 16.054 80.0848 16.9346 79.7174 17.56C79.4738 17.9747 78.9641 18.2361 78.4807 18.201C78.5859 18.5853 78.7112 18.9695 78.7916 19.3563L79.0105 20.4108C79.0469 20.5865 79.0825 20.7624 79.118 20.9381C79.3292 21.9856 79.5233 23.0318 79.6788 24.0875C80.0036 26.2857 80.2975 28.4885 80.5566 30.6948C80.7422 32.2727 80.9162 33.8522 81.0856 35.4313L81.1861 36.3787C81.3602 38.0096 81.4963 39.6549 81.3779 41.2928C81.2001 43.7504 80.3648 45.9921 78.7437 47.8154C78.8976 48.1519 78.9502 48.5304 79.0662 48.9482C79.2271 49.5265 79.4367 50.0929 79.6602 50.6544C79.7646 50.8745 79.869 51.0953 79.9727 51.3168L80.2449 51.9028L80.4576 52.287C80.6873 52.7048 80.91 53.1289 81.0508 53.5614C81.9673 54.0044 82.7159 54.7264 82.7523 55.7155C82.7848 56.6093 82.272 57.5563 81.405 58.0119C80.5504 58.462 79.6702 58.2846 78.8512 57.9411C78.1373 58.129 77.3732 58.1528 76.6663 57.9517C76.1218 58.3975 75.4203 58.7052 74.6415 58.7886C73.4682 58.9148 72.3545 58.6176 71.2779 58.2264L71.2029 58.1991C71.1689 58.1872 71.1356 58.1746 71.1031 58.162C69.8649 58.108 68.6321 57.6649 67.7535 56.8798C67.4673 56.6261 67.2198 56.3352 67.021 56.0092C66.2964 54.8246 66.1842 53.3707 66.8965 52.1959C66.7434 52.2015 66.5895 52.2071 66.4363 52.2106C64.3984 52.2632 62.3574 52.1692 60.3241 52.0479L59.8453 52.0185C58.5297 51.933 56.59 51.7311 56.5529 50.2562C56.5475 50.0677 56.7625 49.9261 56.9597 49.9765C57.7068 50.1672 58.4416 50.4672 59.2158 50.5752C60.2289 50.7168 61.2777 50.7322 62.3009 50.7834L62.5956 50.7988C64.659 50.9004 66.796 50.9628 68.8262 50.5927C70.3413 50.3172 71.9206 49.816 73.3089 49.1949C74.6415 48.597 75.8527 47.8154 76.8295 46.7955C78.9804 44.5502 79.2657 41.3831 79.1606 38.5429C79.0337 35.1507 78.5929 31.7634 78.3446 28.376L78.2325 26.8543C78.1397 25.5852 78.0546 24.3144 78.0198 23.0448C77.9935 22.118 78.0105 21.1888 78.0159 20.262C78.0182 19.7992 78.012 19.334 78.0236 18.8712C78.0298 18.6111 78.0639 18.3569 78.0878 18.1025C77.9742 18.0487 77.8682 17.9736 77.7723 17.8741C77.6973 17.7956 77.6385 17.7124 77.5983 17.628C77.1157 17.5002 76.8914 17.3303 76.5781 16.9449C76.3136 16.6204 76.0143 16.3204 75.6949 16.0392C75.0135 15.4417 74.2347 14.953 73.4125 14.5276C71.7118 13.6478 69.8494 13.0596 67.9716 12.5768C65.096 11.8387 62.1091 11.459 59.191 10.866C58.3866 11.8807 57.5343 12.865 56.6434 13.8177C53.8626 16.7891 50.6738 19.4382 47.257 21.8004C46.5616 22.282 45.8569 22.7566 45.142 23.2169C44.2003 24.5159 43.2485 25.8087 42.2826 27.0928L41.8677 27.6425L41.8613 27.6531C41.8043 27.7316 41.7497 27.8101 41.6955 27.8886C41.5802 28.055 41.4507 28.2155 41.3134 28.3714C41.224 28.4896 41.1334 28.6079 41.0414 28.7264C41.2175 28.8118 41.3782 28.908 41.5038 29.0146C41.7602 29.2336 41.7174 29.5817 41.5038 29.8043C40.8147 30.5237 39.7242 29.5864 38.9315 29.3368C38.0728 29.5734 37.3566 30.498 37.0003 31.2044C36.4875 32.2227 36.2815 33.4506 36.5134 34.5531C36.7256 35.5608 37.2983 36.4315 38.2503 36.9775C38.2839 36.9962 38.32 37.0161 38.3551 37.0336C38.3564 37.0361 38.3564 37.0361 38.3578 37.0348C38.3901 37.0536 38.4238 37.0712 38.4575 37.0876C38.9043 37.3103 39.3952 37.4415 39.9041 37.473C40.1955 37.4919 40.5 37.4777 40.7915 37.5094C41.0906 37.541 41.3367 37.6653 41.6243 37.7309C41.9416 37.8046 42.1463 38.1902 41.9466 38.449C41.8483 38.5767 41.7551 38.6987 41.6552 38.8077C41.983 39.1569 42.2678 39.5423 42.5257 39.909C42.8779 40.4116 43.1901 40.9449 43.4751 41.4886C43.738 41.8014 43.9893 42.1201 44.2328 42.4458C45.6122 44.295 46.6678 46.3545 47.3167 48.5073C47.9591 50.6362 48.3606 53.0272 47.7661 55.201C47.2182 57.2002 45.6187 58.8552 43.251 58.9618C42.7569 58.9842 42.2709 58.9344 41.814 58.8209C40.8102 59.3817 39.5663 59.6635 38.453 59.6964C37.5524 59.723 36.5665 59.552 35.8309 59.0592C34.9584 59.4027 34.0118 59.5976 33.1887 59.6417C32.2677 59.6915 31.3038 59.4644 30.5529 59.015C29.8385 59.5688 29.0676 60.0357 28.1917 60.3567C26.6853 60.907 24.8928 60.839 23.5134 60.0154C22.1314 59.1903 21.4281 57.7098 21.8503 56.2398C22.2389 54.8855 23.4602 53.8922 24.6078 53.037L24.8345 52.8688C25.9697 52.0304 27.116 51.2194 27.8446 50.0382C28.6178 48.7856 28.9001 47.3303 28.9765 45.9129C29.1424 42.7914 28.4403 39.6982 28.2266 36.5932C28.0065 33.3862 28.1295 30.1698 28.6126 26.9863C29.5517 20.8022 32.0229 14.7398 36.4939 9.91928C37.1408 9.2218 37.8332 8.55692 38.5629 7.9268C39.1206 7.26689 39.7234 6.64834 40.3786 6.09435ZM99.8517 41.4041C99.8765 41.4053 99.8997 41.4065 99.9213 41.4147C99.9368 41.4203 99.9492 41.4293 99.96 41.4391L100.069 41.5377C100.108 41.5728 100.105 41.6267 100.069 41.6619C100.037 41.6939 99.9801 41.6948 99.943 41.67L99.9322 41.6619L99.8192 41.5598C99.8069 41.5477 99.796 41.5345 99.7906 41.5178C99.786 41.5014 99.786 41.4826 99.7844 41.4651C99.7829 41.4334 99.8169 41.4041 99.8517 41.4041ZM39.0832 31.8313C40.122 31.5464 41.368 32.2238 41.9871 32.9386C42.2979 33.297 42.386 33.788 41.9871 34.1407C41.6477 34.4406 40.9846 34.4956 40.6569 34.1407C40.2852 33.7364 39.9821 33.1763 39.4511 32.9175C38.8747 32.6362 38.1028 32.7065 37.9667 33.3919C37.9434 33.508 37.7595 33.4692 37.7517 33.365C37.7012 32.6714 38.3735 32.0245 39.0832 31.8313Z" fill="black"/>
<path fill-rule="evenodd" clip-rule="evenodd" d="M66.8316 43.6206C65.9592 43.2988 65.1804 42.7633 64.6111 42.0783C64.4139 41.8404 64.3621 41.589 64.4039 41.3591C64.4503 41.1006 64.6197 40.8663 64.8509 40.7092C65.0829 40.5515 65.3722 40.4738 65.6529 40.5134C65.8966 40.5478 66.1386 40.6682 66.3304 40.9179L66.3707 40.9678C66.7094 41.381 67.1503 41.7201 67.6522 41.9386C68.1364 42.1493 68.6785 42.2476 69.2385 42.1904C70.3058 42.0816 71.0421 41.5605 71.824 40.8528C71.9207 40.7634 72.0174 40.6713 72.1148 40.5777C72.1767 40.4928 72.2618 40.4382 72.3569 40.4096C72.4621 40.3779 72.5812 40.3796 72.6902 40.4141C72.7954 40.4471 72.8898 40.51 72.9532 40.5936C73.0127 40.6731 73.0468 40.7712 73.036 40.8841C72.964 41.6175 72.5394 42.272 71.9362 42.7857C71.2664 43.357 70.3777 43.7517 69.5417 43.8905C68.6205 44.0426 67.6816 43.9332 66.8316 43.6206ZM69.9763 32.3065C70.9562 32.8443 72.4497 34.0984 71.3955 35.4317C70.1542 36.6074 68.3676 35.2594 67.4867 34.6498C66.6708 34.1773 65.7535 35.3924 66.5107 35.9441C72.8735 40.1968 75.456 32.4471 70.4721 31.6742C69.9237 31.589 69.7195 32.1401 69.9763 32.3065ZM58.5739 27.3596C58.6822 26.1461 60.7294 25.8706 60.9328 27.0713C61.1153 28.1469 60.9003 29.135 60.3643 30.1035C59.8508 31.0286 58.5623 30.597 58.4648 29.7546C58.3341 28.6253 58.5066 28.1144 58.5739 27.3596ZM74.1574 26.8222C74.4428 26.4848 74.855 26.2544 75.3492 26.3846C76.8914 26.7916 76.4367 28.7686 75.8953 29.7309C75.6006 30.2535 74.6493 30.386 74.2193 29.9258C73.5186 29.1755 73.1829 27.677 74.0739 26.9379C74.0979 26.8997 74.1249 26.8611 74.1574 26.8222ZM60.3419 22.0498L60.5855 22.0113C61.3396 21.8936 62.277 21.7805 62.8099 22.3276C63.0929 22.6177 63.1904 23.157 62.8099 23.4346C62.1416 23.9232 61.4023 23.7339 60.601 23.7752C59.9405 23.8094 59.3055 23.9081 58.6698 24.0722C57.2738 24.4323 56.1368 25.0897 54.945 25.8114C54.7886 25.9061 54.629 25.7255 54.7036 25.5935C55.3917 24.3769 56.7254 23.3776 58.0603 22.7684C58.7734 22.4432 59.5538 22.1736 60.3419 22.0498ZM72.7513 21.5049L72.9377 21.5393C74.9672 21.9223 77.6037 22.6874 78.5651 24.487C78.6022 24.7415 78.5628 24.796 78.5318 24.8317L78.521 24.8435C78.4955 24.874 78.4746 24.9159 78.3524 24.9506C78.3184 24.9432 78.2843 24.9355 78.2495 24.9273C77.8087 24.8231 77.4607 24.6795 77.1227 24.5305L76.7569 24.3679C76.333 24.1799 75.9045 23.9989 75.4506 23.8652C74.4822 23.58 73.4861 23.3791 72.4745 23.2719C72.2548 23.2486 72.0437 23.1818 71.8774 23.0673C71.7188 22.9587 71.5982 22.8082 71.5433 22.6082C71.4721 22.3494 71.4922 22.1534 71.6461 21.9199C71.7621 21.7445 71.9277 21.6229 72.1171 21.5532C72.3113 21.482 72.5317 21.4652 72.7513 21.5049Z" fill="black"/>
</svg>
